<?xml version="1.0" encoding="utf-8"?>
<!-- Generator: Adobe Illustrator 24.0.1, SVG Export Plug-In . SVG Version: 6.00 Build 0)  -->
<svg version="1.1" id="Layer_1" xmlns="http://www.w3.org/2000/svg" xmlns:xlink="http://www.w3.org/1999/xlink" x="0px" y="0px"
	 viewBox="0 0 450 350" style="enable-background:new 0 0 450 350;" xml:space="preserve">
<style type="text/css">
	.st0{fill:#232933;}
	.st1{fill:#232933;enable-background:new    ;}
</style>
<g>
	<g>
		<g>
			<path class="st0" d="M61.8,241.1c-0.3-0.5-0.5-1.2-0.5-1.8V235c0-0.7,0.2-1.1,0.5-1.3c0.3-0.2,0.8-0.2,1.5,0.2
				c0.6,0.3,1.1,0.8,1.5,1.3c0.3,0.5,0.5,1.2,0.5,1.8v4.4c0,0.7-0.2,1.1-0.5,1.3c-0.3,0.2-0.8,0.2-1.5-0.2
				C62.7,242.1,62.2,241.6,61.8,241.1z M64,240.7v-4.5c0-0.5-0.2-0.9-0.7-1.2c-0.5-0.2-0.7-0.1-0.7,0.5v4.5c0,0.5,0.2,0.9,0.7,1.2
				C63.8,241.4,64,241.3,64,240.7z"/>
			<path class="st0" d="M63.2,247.2l-1.3-0.7v-0.9c0.4,0.2,0.7,0.3,0.9,0.3c0.2,0.1,0.4,0,0.5-0.1s0.2-0.2,0.4-0.5l0.9,0.4v8.3
				l-1.3-0.7L63.2,247.2L63.2,247.2z"/>
			<path class="st0" d="M61.8,263.7c-0.3-0.5-0.5-1.2-0.5-1.8v-4.4c0-0.7,0.2-1.1,0.5-1.3c0.3-0.2,0.8-0.2,1.5,0.2
				c0.6,0.3,1.1,0.8,1.5,1.3c0.3,0.5,0.5,1.2,0.5,1.8v4.4c0,0.7-0.2,1.1-0.5,1.3c-0.3,0.2-0.8,0.2-1.5-0.2
				C62.7,264.7,62.2,264.2,61.8,263.7z M64,263.3v-4.5c0-0.5-0.2-0.9-0.7-1.2c-0.5-0.2-0.7-0.1-0.7,0.5v4.5c0,0.5,0.2,0.9,0.7,1.2
				S64,263.8,64,263.3z"/>
			<path class="st0" d="M61.8,275c-0.3-0.5-0.5-1.2-0.5-1.8v-4.4c0-0.7,0.2-1.1,0.5-1.3c0.3-0.2,0.8-0.2,1.5,0.2
				c0.6,0.3,1.1,0.8,1.5,1.3c0.3,0.5,0.5,1.2,0.5,1.8v4.4c0,0.7-0.2,1.1-0.5,1.3c-0.3,0.2-0.8,0.2-1.5-0.2
				C62.7,275.9,62.2,275.5,61.8,275z M64,274.6v-4.5c0-0.5-0.2-0.9-0.7-1.2c-0.5-0.2-0.7-0.1-0.7,0.5v4.5c0,0.5,0.2,0.9,0.7,1.2
				S64,275.1,64,274.6z"/>
			<path class="st0" d="M63.2,281.1l-1.3-0.7v-0.9c0.4,0.2,0.7,0.3,0.9,0.3c0.2,0.1,0.4,0,0.5-0.1c0.2-0.1,0.2-0.2,0.4-0.5l0.9,0.4
				v8.4l-1.3-0.7L63.2,281.1L63.2,281.1z"/>
			<path class="st0" d="M61.8,297.5c-0.3-0.5-0.5-1.2-0.5-1.8v-4.4c0-0.7,0.2-1.1,0.5-1.3c0.3-0.2,0.8-0.2,1.5,0.2
				c0.6,0.3,1.1,0.8,1.5,1.3c0.3,0.5,0.5,1.2,0.5,1.8v4.4c0,0.7-0.2,1.1-0.5,1.3c-0.3,0.2-0.8,0.2-1.5-0.2
				C62.7,298.5,62.2,298,61.8,297.5z M64,297.2v-4.5c0-0.5-0.2-0.9-0.7-1.2c-0.5-0.2-0.7-0.1-0.7,0.5v4.5c0,0.5,0.2,0.9,0.7,1.2
				C63.8,297.9,64,297.7,64,297.2z"/>
			<path class="st0" d="M63.2,303.6l-1.3-0.7v-0.9c0.4,0.2,0.7,0.3,0.9,0.3c0.2,0.1,0.4,0,0.5-0.1s0.2-0.2,0.4-0.5l0.9,0.4v8.3
				l-1.3-0.7L63.2,303.6L63.2,303.6z"/>
		</g>
		<g>
			<path class="st0" d="M69.2,238.9l-1.3-0.7v-0.9c0.4,0.2,0.7,0.3,0.9,0.3c0.2,0.1,0.4,0,0.5-0.1c0.2-0.1,0.2-0.2,0.4-0.5l0.9,0.4
				v8.3l-1.3-0.7L69.2,238.9L69.2,238.9z"/>
			<path class="st0" d="M67.8,255.4c-0.3-0.5-0.5-1.2-0.5-1.8v-4.3c0-0.7,0.2-1.1,0.5-1.3c0.3-0.2,0.8-0.2,1.5,0.2
				c0.6,0.3,1.1,0.8,1.5,1.3c0.3,0.5,0.5,1.2,0.5,1.8v4.4c0,0.7-0.2,1.1-0.5,1.3s-0.8,0.2-1.5-0.2C68.6,256.4,68.2,255.9,67.8,255.4
				z M69.9,255v-4.5c0-0.5-0.2-0.9-0.7-1.2c-0.5-0.2-0.7-0.1-0.7,0.5v4.5c0,0.5,0.2,0.9,0.7,1.2C69.7,255.7,69.9,255.6,69.9,255z"/>
			<path class="st0" d="M69.2,261.5l-1.3-0.7v-0.9c0.4,0.2,0.7,0.3,0.9,0.3c0.2,0.1,0.4,0,0.5-0.1c0.2-0.1,0.2-0.2,0.4-0.5l0.9,0.4
				v8.3l-1.3-0.7L69.2,261.5L69.2,261.5z"/>
			<path class="st0" d="M67.8,278c-0.3-0.5-0.5-1.2-0.5-1.8v-4.4c0-0.7,0.2-1.1,0.5-1.3c0.3-0.2,0.8-0.2,1.5,0.2
				c0.6,0.3,1.1,0.8,1.5,1.3c0.3,0.5,0.5,1.2,0.5,1.8v4.4c0,0.7-0.2,1.1-0.5,1.3s-0.8,0.2-1.5-0.2C68.6,279,68.2,278.5,67.8,278z
				 M69.9,277.6V273c0-0.5-0.2-0.9-0.7-1.2c-0.5-0.2-0.7-0.1-0.7,0.5v4.5c0,0.5,0.2,0.9,0.7,1.2C69.7,278.3,69.9,278.1,69.9,277.6z"
				/>
			<path class="st0" d="M67.8,289.3c-0.3-0.5-0.5-1.2-0.5-1.8v-4.4c0-0.7,0.2-1.1,0.5-1.3c0.3-0.2,0.8-0.2,1.5,0.2
				c0.6,0.3,1.1,0.8,1.5,1.3c0.3,0.5,0.5,1.2,0.5,1.8v4.4c0,0.7-0.2,1.1-0.5,1.3s-0.8,0.2-1.5-0.2C68.6,290.3,68.2,289.7,67.8,289.3
				z M69.9,288.9v-4.5c0-0.5-0.2-0.9-0.7-1.2c-0.5-0.2-0.7-0.1-0.7,0.5v4.5c0,0.5,0.2,0.9,0.7,1.2C69.7,289.6,69.9,289.4,69.9,288.9
				z"/>
			<path class="st0" d="M69.2,295.4l-1.3-0.7v-0.9c0.4,0.2,0.7,0.3,0.9,0.3c0.2,0.1,0.4,0,0.5-0.1c0.2-0.1,0.2-0.2,0.4-0.5l0.9,0.4
				v8.3l-1.3-0.7L69.2,295.4L69.2,295.4z"/>
			<path class="st0" d="M67.8,311.8c-0.3-0.5-0.5-1.2-0.5-1.8v-4.4c0-0.7,0.2-1.1,0.5-1.3c0.3-0.2,0.8-0.2,1.5,0.2
				c0.7,0.4,1.1,0.8,1.5,1.3c0.3,0.5,0.5,1.2,0.5,1.8v4.4c0,0.7-0.2,1.1-0.5,1.3c-0.3,0.2-0.8,0.2-1.5-0.2
				C68.5,312.8,68.2,312.4,67.8,311.8z M69.9,311.4v-4.5c0-0.5-0.2-0.9-0.7-1.2c-0.5-0.2-0.7-0.1-0.7,0.5v4.5c0,0.5,0.2,0.9,0.7,1.2
				C69.7,312.1,69.9,312,69.9,311.4z"/>
		</g>
		<g>
			<path class="st0" d="M73.8,247.1c-0.3-0.5-0.5-1.2-0.5-1.8V241c0-0.7,0.2-1.1,0.5-1.3c0.3-0.2,0.8-0.2,1.5,0.2
				c0.6,0.3,1.1,0.8,1.5,1.3c0.3,0.5,0.5,1.2,0.5,1.8v4.4c0,0.7-0.2,1.1-0.5,1.3c-0.3,0.2-0.8,0.2-1.5-0.2
				C74.6,248.1,74,247.7,73.8,247.1z M75.9,246.7v-4.5c0-0.5-0.2-0.9-0.7-1.2c-0.5-0.2-0.7-0.1-0.7,0.5v4.5c0,0.5,0.2,0.9,0.7,1.2
				C75.6,247.4,75.9,247.3,75.9,246.7z"/>
			<path class="st0" d="M73.8,258.4c-0.3-0.5-0.5-1.2-0.5-1.8v-4.4c0-0.7,0.2-1.1,0.5-1.3c0.3-0.2,0.8-0.2,1.5,0.2
				c0.6,0.3,1.1,0.8,1.5,1.3c0.3,0.5,0.5,1.2,0.5,1.8v4.4c0,0.7-0.2,1.1-0.5,1.3s-0.8,0.2-1.5-0.2C74.6,259.4,74,258.9,73.8,258.4z
				 M75.9,258.1v-4.5c0-0.5-0.2-0.9-0.7-1.2c-0.5-0.2-0.7-0.1-0.7,0.5v4.5c0,0.5,0.2,0.9,0.7,1.2C75.6,258.8,75.9,258.6,75.9,258.1z
				"/>
			<path class="st0" d="M73.8,269.8c-0.3-0.5-0.5-1.2-0.5-1.8v-4.4c0-0.7,0.2-1.1,0.5-1.3c0.3-0.2,0.8-0.2,1.5,0.2
				c0.6,0.3,1.1,0.8,1.5,1.3c0.3,0.5,0.5,1.2,0.5,1.8v4.4c0,0.7-0.2,1.1-0.5,1.3s-0.8,0.2-1.5-0.2C74.6,270.7,74,270.2,73.8,269.8z
				 M75.9,269.3v-4.5c0-0.5-0.2-0.9-0.7-1.2c-0.5-0.2-0.7-0.1-0.7,0.5v4.5c0,0.5,0.2,0.9,0.7,1.2C75.6,270,75.9,269.8,75.9,269.3z"
				/>
			<path class="st0" d="M75.2,275.8l-1.3-0.7v-0.9c0.4,0.2,0.7,0.3,0.9,0.3c0.2,0.1,0.4,0,0.5-0.1s0.2-0.2,0.4-0.5l0.9,0.4v8.3
				l-1.3-0.7V275.8z"/>
			<path class="st0" d="M75.2,287.1l-1.3-0.7v-0.9c0.4,0.2,0.7,0.3,0.9,0.3c0.2,0.1,0.4,0,0.5-0.1c0.2-0.1,0.2-0.2,0.4-0.5l0.9,0.4
				v8.3l-1.3-0.7V287.1z"/>
			<path class="st0" d="M75.2,298.4l-1.3-0.7v-0.9c0.4,0.2,0.7,0.3,0.9,0.3c0.2,0.1,0.4,0,0.5-0.1c0.2-0.1,0.2-0.2,0.4-0.5l0.9,0.4
				v8.3l-1.3-0.7V298.4z"/>
			<path class="st0" d="M73.8,314.8c-0.3-0.5-0.5-1.2-0.5-1.8v-4.4c0-0.7,0.2-1.1,0.5-1.3s0.8-0.2,1.5,0.2c0.6,0.3,1.1,0.8,1.5,1.3
				c0.3,0.5,0.5,1.2,0.5,1.8v4.4c0,0.7-0.2,1.1-0.5,1.3s-0.8,0.2-1.5-0.2C74.6,315.7,74,315.3,73.8,314.8z M75.9,314.5V310
				c0-0.5-0.2-0.9-0.7-1.2s-0.7-0.1-0.7,0.5v4.5c0,0.5,0.2,0.9,0.7,1.2C75.6,315.2,75.9,315,75.9,314.5z"/>
		</g>
		<g>
			<path class="st0" d="M81,244.9l-1.3-0.7v-0.9c0.4,0.2,0.7,0.3,0.9,0.3c0.2,0.1,0.4,0,0.5-0.1s0.2-0.2,0.4-0.5l0.9,0.4v8.3
				l-1.3-0.7V244.9z"/>
			<path class="st0" d="M81,256.3l-1.3-0.7v-0.9c0.4,0.2,0.7,0.3,0.9,0.3c0.2,0.1,0.4,0,0.5-0.1s0.2-0.2,0.4-0.5l0.9,0.4v8.3
				l-1.3-0.7V256.3z"/>
			<path class="st0" d="M81,267.6l-1.3-0.7V266c0.4,0.2,0.7,0.3,0.9,0.3c0.2,0.1,0.4,0,0.5-0.1s0.2-0.2,0.4-0.5l0.9,0.4v8.3
				l-1.3-0.7V267.6z"/>
			<path class="st0" d="M79.7,284c-0.3-0.5-0.5-1.2-0.5-1.8v-4.4c0-0.7,0.2-1.1,0.5-1.3s0.8-0.2,1.5,0.2c0.6,0.3,1.1,0.8,1.5,1.3
				c0.3,0.5,0.5,1.2,0.5,1.8v4.3c0,0.7-0.2,1.1-0.5,1.3s-0.8,0.2-1.5-0.2C80.5,285,80,284.5,79.7,284z M81.8,283.7v-4.5
				c0-0.5-0.2-0.9-0.7-1.2c-0.5-0.2-0.7-0.1-0.7,0.5v4.5c0,0.5,0.2,0.9,0.7,1.2C81.6,284.3,81.8,284.2,81.8,283.7z"/>
			<path class="st0" d="M79.7,295.2c-0.3-0.5-0.5-1.2-0.5-1.8v-4.3c0-0.7,0.2-1.1,0.5-1.3s0.8-0.2,1.5,0.2c0.6,0.3,1.1,0.8,1.5,1.3
				c0.3,0.5,0.5,1.2,0.5,1.8v4.4c0,0.7-0.2,1.1-0.5,1.3c-0.3,0.2-0.8,0.2-1.5-0.2C80.5,296.2,80,295.8,79.7,295.2z M81.8,294.9v-4.5
				c0-0.5-0.2-0.9-0.7-1.2s-0.7-0.1-0.7,0.5v4.5c0,0.5,0.2,0.9,0.7,1.2C81.6,295.6,81.8,295.4,81.8,294.9z"/>
			<path class="st0" d="M79.7,306.5c-0.3-0.5-0.5-1.2-0.5-1.8v-4.4c0-0.7,0.2-1.1,0.5-1.3c0.3-0.2,0.8-0.2,1.5,0.2
				c0.6,0.3,1.1,0.8,1.5,1.3c0.3,0.5,0.5,1.2,0.5,1.8v4.4c0,0.7-0.2,1.1-0.5,1.3s-0.8,0.2-1.5-0.2C80.5,307.5,80,307.1,79.7,306.5z
				 M81.8,306.2v-4.5c0-0.5-0.2-0.9-0.7-1.2c-0.5-0.2-0.7-0.1-0.7,0.5v4.5c0,0.5,0.2,0.9,0.7,1.2C81.6,306.8,81.8,306.8,81.8,306.2z
				"/>
			<path class="st0" d="M81,312.7l-1.3-0.7v-0.9c0.4,0.2,0.7,0.3,0.9,0.3c0.2,0.1,0.4,0,0.5-0.1s0.2-0.2,0.4-0.5l0.9,0.4v8.3
				l-1.3-0.7V312.7z"/>
		</g>
		<g>
			<path class="st0" d="M20.5,214.8l-1.3-0.7v-0.9c0.4,0.2,0.7,0.3,0.9,0.3c0.2,0.1,0.4,0,0.5-0.1c0.2-0.1,0.2-0.2,0.4-0.5l0.9,0.4
				v8.3l-1.3-0.7L20.5,214.8L20.5,214.8z"/>
			<path class="st0" d="M19.1,231.2c-0.3-0.5-0.5-1.2-0.5-1.8v-4.3c0-0.7,0.2-1.1,0.5-1.3c0.3-0.2,0.8-0.2,1.5,0.2
				c0.6,0.3,1.1,0.8,1.5,1.3c0.3,0.5,0.5,1.2,0.5,1.8v4.4c0,0.7-0.2,1.1-0.5,1.3c-0.3,0.2-0.8,0.2-1.5-0.2
				C19.8,232.1,19.4,231.8,19.1,231.2z M21.2,230.9v-4.5c0-0.5-0.2-0.9-0.7-1.2c-0.5-0.2-0.7-0.1-0.7,0.5v4.5c0,0.5,0.2,0.9,0.7,1.2
				C20.9,231.6,21.2,231.4,21.2,230.9z"/>
			<path class="st0" d="M20.5,237.4l-1.3-0.7v-0.9c0.4,0.2,0.7,0.3,0.9,0.3c0.2,0.1,0.4,0,0.5-0.1s0.2-0.2,0.4-0.5l0.9,0.4v8.3
				l-1.3-0.7L20.5,237.4L20.5,237.4z"/>
			<path class="st0" d="M19.1,253.8c-0.3-0.5-0.5-1.2-0.5-1.8v-4.3c0-0.7,0.2-1.1,0.5-1.3c0.3-0.2,0.8-0.2,1.5,0.2
				c0.6,0.3,1.1,0.8,1.5,1.3c0.3,0.5,0.5,1.2,0.5,1.8v4.4c0,0.7-0.2,1.1-0.5,1.3c-0.3,0.2-0.8,0.2-1.5-0.2
				C19.8,254.8,19.4,254.3,19.1,253.8z M21.2,253.5v-4.5c0-0.5-0.2-0.9-0.7-1.2c-0.5-0.2-0.7-0.1-0.7,0.5v4.5c0,0.5,0.2,0.9,0.7,1.2
				C20.9,254.2,21.2,254,21.2,253.5z"/>
			<path class="st0" d="M19.1,265.1c-0.3-0.5-0.5-1.2-0.5-1.8v-4.4c0-0.7,0.2-1.1,0.5-1.3c0.3-0.2,0.8-0.2,1.5,0.2
				c0.6,0.3,1.1,0.8,1.5,1.3c0.3,0.5,0.5,1.2,0.5,1.8v4.4c0,0.7-0.2,1.1-0.5,1.3c-0.3,0.2-0.8,0.2-1.5-0.2
				C19.8,266,19.4,265.6,19.1,265.1z M21.2,264.8v-4.5c0-0.5-0.2-0.9-0.7-1.2c-0.5-0.2-0.7-0.1-0.7,0.5v4.5c0,0.5,0.2,0.9,0.7,1.2
				C20.9,265.4,21.2,265.3,21.2,264.8z"/>
			<path class="st0" d="M20.5,271.2l-1.3-0.7v-0.9c0.4,0.2,0.7,0.3,0.9,0.3c0.2,0.1,0.4,0,0.5-0.1c0.2-0.1,0.2-0.2,0.4-0.5l0.9,0.4
				v8.3l-1.3-0.6V271.2L20.5,271.2z"/>
			<path class="st0" d="M19.1,287.6c-0.3-0.5-0.5-1.2-0.5-1.8v-4.4c0-0.7,0.2-1.1,0.5-1.3c0.3-0.2,0.8-0.2,1.5,0.2
				c0.6,0.3,1.1,0.8,1.5,1.3c0.3,0.5,0.5,1.2,0.5,1.8v4.4c0,0.7-0.2,1.1-0.5,1.3c-0.3,0.2-0.8,0.2-1.5-0.2
				C19.8,288.6,19.4,288.2,19.1,287.6z M21.2,287.3v-4.5c0-0.5-0.2-0.9-0.7-1.2c-0.5-0.2-0.7-0.1-0.7,0.5v4.5c0,0.5,0.2,0.9,0.7,1.2
				C20.9,288,21.2,287.9,21.2,287.3z"/>
		</g>
		<g>
			<path class="st0" d="M25,222.9c-0.3-0.5-0.5-1.2-0.5-1.8v-4.4c0-0.7,0.2-1.1,0.5-1.3c0.3-0.2,0.8-0.2,1.5,0.2
				c0.6,0.3,1.1,0.8,1.5,1.3c0.3,0.5,0.5,1.2,0.5,1.8v4.4c0,0.7-0.2,1.1-0.5,1.3c-0.3,0.2-0.8,0.2-1.5-0.2
				C25.9,223.9,25.3,223.5,25,222.9z M27.1,222.6v-4.5c0-0.5-0.2-0.9-0.7-1.2c-0.5-0.2-0.7-0.1-0.7,0.5v4.5c0,0.5,0.2,0.9,0.7,1.2
				C26.9,223.3,27.1,223.2,27.1,222.6z"/>
			<path class="st0" d="M25,234.3c-0.3-0.5-0.5-1.2-0.5-1.8v-4.4c0-0.7,0.2-1.1,0.5-1.3c0.3-0.2,0.8-0.2,1.5,0.2
				c0.6,0.3,1.1,0.8,1.5,1.3c0.3,0.5,0.5,1.2,0.5,1.8v4.4c0,0.7-0.2,1.1-0.5,1.3c-0.3,0.2-0.8,0.2-1.5-0.2
				C25.9,235.2,25.3,234.8,25,234.3z M27.1,233.9v-4.5c0-0.5-0.2-0.9-0.7-1.2c-0.5-0.2-0.7-0.1-0.7,0.5v4.5c0,0.5,0.2,0.9,0.7,1.2
				C26.9,234.6,27.1,234.4,27.1,233.9z"/>
			<path class="st0" d="M25,245.5c-0.3-0.5-0.5-1.2-0.5-1.8v-4.4c0-0.7,0.2-1.1,0.5-1.3c0.3-0.2,0.8-0.2,1.5,0.2
				c0.6,0.3,1.1,0.8,1.5,1.3c0.3,0.5,0.5,1.2,0.5,1.8v4.4c0,0.7-0.2,1.1-0.5,1.3c-0.3,0.2-0.8,0.2-1.5-0.2
				C25.9,246.5,25.3,246,25,245.5z M27.1,245.2v-4.5c0-0.5-0.2-0.9-0.7-1.2c-0.5-0.2-0.7-0.1-0.7,0.5v4.5c0,0.5,0.2,0.9,0.7,1.2
				C26.9,245.9,27.1,245.7,27.1,245.2z"/>
			<path class="st0" d="M26.4,251.7l-1.3-0.7v-0.9c0.4,0.2,0.7,0.3,0.9,0.3c0.2,0.1,0.4,0,0.5-0.1c0.2-0.1,0.2-0.2,0.4-0.5l0.9,0.4
				v8.3l-1.3-0.7L26.4,251.7L26.4,251.7z"/>
			<path class="st0" d="M26.4,263l-1.3-0.7v-0.9c0.4,0.2,0.7,0.3,0.9,0.3c0.2,0.1,0.4,0,0.5-0.1c0.2-0.1,0.2-0.2,0.4-0.5l0.9,0.4
				v8.3l-1.3-0.7L26.4,263L26.4,263z"/>
			<path class="st0" d="M26.4,274.2l-1.3-0.7v-0.9c0.4,0.2,0.7,0.3,0.9,0.3c0.2,0.1,0.4,0,0.5-0.1c0.2-0.1,0.2-0.2,0.4-0.5l0.9,0.4
				v8.3l-1.3-0.7L26.4,274.2L26.4,274.2z"/>
			<path class="st0" d="M25,290.7c-0.3-0.5-0.5-1.2-0.5-1.8v-4.4c0-0.7,0.2-1.1,0.5-1.3c0.3-0.2,0.8-0.2,1.5,0.2
				c0.6,0.3,1.1,0.8,1.5,1.3c0.3,0.5,0.5,1.2,0.5,1.8v4.4c0,0.7-0.2,1.1-0.5,1.3c-0.3,0.2-0.8,0.2-1.5-0.2
				C25.9,291.6,25.3,291.2,25,290.7z M27.1,290.3v-4.5c0-0.5-0.2-0.9-0.7-1.2c-0.5-0.2-0.7-0.1-0.7,0.5v4.5c0,0.5,0.2,0.9,0.7,1.2
				C26.9,291,27.1,290.8,27.1,290.3z"/>
		</g>
		<g>
			<path class="st0" d="M32.3,220.8l-1.3-0.7v-0.9c0.4,0.2,0.7,0.3,0.9,0.3c0.2,0.1,0.4,0,0.5-0.1s0.2-0.2,0.4-0.5l0.9,0.4v8.3
				l-1.3-0.7L32.3,220.8L32.3,220.8z"/>
			<path class="st0" d="M32.3,232.1l-1.3-0.7v-0.9c0.4,0.2,0.7,0.3,0.9,0.3c0.2,0.1,0.4,0,0.5-0.1c0.2-0.1,0.2-0.2,0.4-0.5l0.9,0.4
				v8.3l-1.3-0.7L32.3,232.1L32.3,232.1z"/>
			<path class="st0" d="M32.3,243.4l-1.3-0.7v-0.9c0.4,0.2,0.7,0.3,0.9,0.3c0.2,0.1,0.4,0,0.5-0.1s0.2-0.2,0.4-0.5l0.9,0.4v8.3
				l-1.3-0.7L32.3,243.4L32.3,243.4z"/>
			<path class="st0" d="M30.9,259.9c-0.3-0.5-0.5-1.2-0.5-1.8v-4.4c0-0.7,0.2-1.1,0.5-1.3c0.3-0.2,0.8-0.2,1.5,0.2s1.1,0.8,1.5,1.3
				c0.3,0.5,0.5,1.2,0.5,1.8v4.4c0,0.7-0.2,1.1-0.5,1.3c-0.3,0.2-0.8,0.2-1.5-0.2C31.8,260.8,31.3,260.4,30.9,259.9z M33,259.5v-4.5
				c0-0.5-0.2-0.9-0.7-1.2c-0.5-0.2-0.7-0.1-0.7,0.5v4.5c0,0.5,0.2,0.9,0.7,1.2C32.9,260.2,33,260,33,259.5z"/>
			<path class="st0" d="M30.9,271.1c-0.3-0.5-0.5-1.2-0.5-1.8v-4.4c0-0.7,0.2-1.1,0.5-1.3c0.3-0.2,0.8-0.2,1.5,0.2
				c0.6,0.3,1.1,0.8,1.5,1.3c0.3,0.5,0.5,1.2,0.5,1.8v4.4c0,0.7-0.2,1.1-0.5,1.3c-0.3,0.2-0.8,0.2-1.5-0.2
				C31.8,272,31.3,271.6,30.9,271.1z M33,270.8v-4.5c0-0.5-0.2-0.9-0.7-1.2c-0.5-0.2-0.7-0.1-0.7,0.5v4.5c0,0.5,0.2,0.9,0.7,1.2
				C32.9,271.5,33,271.3,33,270.8z"/>
			<path class="st0" d="M30.9,282.4c-0.3-0.5-0.5-1.2-0.5-1.8v-4.4c0-0.7,0.2-1.1,0.5-1.3c0.3-0.2,0.8-0.2,1.5,0.2
				c0.6,0.3,1.1,0.8,1.5,1.3c0.3,0.5,0.5,1.2,0.5,1.8v4.3c0,0.7-0.2,1.1-0.5,1.3c-0.3,0.2-0.8,0.2-1.5-0.2
				C31.8,283.3,31.3,283,30.9,282.4z M33,282v-4.5c0-0.5-0.2-0.9-0.7-1.2c-0.5-0.2-0.7-0.1-0.7,0.5v4.5c0,0.5,0.2,0.9,0.7,1.2
				C32.9,282.7,33,282.6,33,282z"/>
			<path class="st0" d="M32.3,288.5l-1.3-0.7v-0.9c0.4,0.2,0.7,0.3,0.9,0.3c0.2,0.1,0.4,0,0.5-0.1c0.2-0.1,0.2-0.2,0.4-0.5l0.9,0.4
				v8.3l-1.3-0.7L32.3,288.5L32.3,288.5z"/>
		</g>
		<g>
			<path class="st0" d="M37.2,229.3c-0.3-0.5-0.5-1.2-0.5-1.8v-4.4c0-0.7,0.2-1.1,0.5-1.3c0.3-0.2,0.8-0.2,1.5,0.2
				c0.6,0.3,1.1,0.8,1.5,1.3c0.3,0.5,0.5,1.2,0.5,1.8v4.4c0,0.7-0.2,1.1-0.5,1.3c-0.3,0.2-0.8,0.2-1.5-0.2
				C38.1,230.2,37.6,229.7,37.2,229.3z M39.4,228.9v-4.5c0-0.5-0.2-0.9-0.7-1.2c-0.5-0.2-0.7-0.1-0.7,0.5v4.5c0,0.5,0.2,0.9,0.7,1.2
				C39.2,229.6,39.4,229.4,39.4,228.9z"/>
			<path class="st0" d="M38.7,235.3l-1.3-0.7v-0.9c0.4,0.2,0.7,0.3,0.9,0.3c0.2,0.1,0.4,0,0.5-0.1c0.2-0.1,0.2-0.2,0.4-0.5l0.9,0.4
				v8.3l-1.3-0.7L38.7,235.3L38.7,235.3z"/>
			<path class="st0" d="M37.2,251.8c-0.3-0.5-0.5-1.2-0.5-1.8v-4.4c0-0.7,0.2-1.1,0.5-1.3c0.3-0.2,0.8-0.2,1.5,0.2
				c0.6,0.3,1.1,0.8,1.5,1.3c0.3,0.5,0.5,1.2,0.5,1.8v4.4c0,0.7-0.2,1.1-0.5,1.3c-0.3,0.2-0.8,0.2-1.5-0.2
				C38.1,252.7,37.6,252.3,37.2,251.8z M39.4,251.4v-4.5c0-0.5-0.2-0.9-0.7-1.2c-0.5-0.2-0.7-0.1-0.7,0.5v4.5c0,0.5,0.2,0.9,0.7,1.2
				C39.2,252.1,39.4,252,39.4,251.4z"/>
			<path class="st0" d="M37.2,263.1c-0.3-0.5-0.5-1.2-0.5-1.8V257c0-0.7,0.2-1.1,0.5-1.3c0.3-0.2,0.8-0.2,1.5,0.2
				c0.6,0.3,1.1,0.8,1.5,1.3c0.3,0.5,0.5,1.2,0.5,1.8v4.4c0,0.7-0.2,1.1-0.5,1.3c-0.3,0.2-0.8,0.2-1.5-0.2S37.6,263.6,37.2,263.1z
				 M39.4,262.7v-4.5c0-0.5-0.2-0.9-0.7-1.2c-0.5-0.2-0.7-0.1-0.7,0.5v4.5c0,0.5,0.2,0.9,0.7,1.2C39.2,263.4,39.4,263.2,39.4,262.7z
				"/>
			<path class="st0" d="M38.7,269.2l-1.3-0.7v-0.9c0.4,0.2,0.7,0.3,0.9,0.3c0.2,0.1,0.4,0,0.5-0.1c0.2-0.1,0.2-0.2,0.4-0.5l0.9,0.4
				v8.3l-1.3-0.7L38.7,269.2L38.7,269.2z"/>
			<path class="st0" d="M37.2,285.6c-0.3-0.5-0.5-1.2-0.5-1.8v-4.4c0-0.7,0.2-1.1,0.5-1.3c0.3-0.2,0.8-0.2,1.5,0.2
				c0.6,0.3,1.1,0.8,1.5,1.3c0.3,0.5,0.5,1.2,0.5,1.8v4.4c0,0.7-0.2,1.1-0.5,1.3c-0.3,0.2-0.8,0.2-1.5-0.2
				C38,286.5,37.6,286.2,37.2,285.6z M39.4,285.3v-4.5c0-0.5-0.2-0.9-0.7-1.2c-0.5-0.2-0.7-0.1-0.7,0.5v4.5c0,0.5,0.2,0.9,0.7,1.2
				C39.2,286,39.4,285.8,39.4,285.3z"/>
			<path class="st0" d="M38.7,291.8l-1.3-0.7v-0.9c0.4,0.2,0.7,0.3,0.9,0.3c0.2,0.1,0.4,0,0.5-0.1c0.2-0.1,0.2-0.2,0.4-0.5l0.9,0.4
				v8.3l-1.3-0.7L38.7,291.8L38.7,291.8z"/>
		</g>
		<g>
			<path class="st0" d="M44.7,227.1l-1.3-0.7v-0.9c0.4,0.2,0.7,0.3,0.9,0.3c0.2,0.1,0.4,0,0.5-0.1c0.2-0.1,0.2-0.2,0.4-0.5l0.9,0.4
				v8.4l-1.3-0.7L44.7,227.1L44.7,227.1z"/>
			<path class="st0" d="M43.3,243.5c-0.3-0.5-0.5-1.2-0.5-1.8v-4.4c0-0.7,0.2-1.1,0.5-1.3c0.3-0.2,0.8-0.2,1.5,0.2
				c0.6,0.3,1.1,0.8,1.5,1.3c0.3,0.5,0.5,1.2,0.5,1.8v4.4c0,0.7-0.2,1.1-0.5,1.3c-0.3,0.2-0.8,0.2-1.5-0.2
				C44,244.5,43.6,244,43.3,243.5z M45.4,243.2v-4.5c0-0.5-0.2-0.9-0.7-1.2c-0.5-0.2-0.7-0.1-0.7,0.5v4.5c0,0.5,0.2,0.9,0.7,1.2
				C45.1,243.8,45.4,243.7,45.4,243.2z"/>
			<path class="st0" d="M44.7,249.6l-1.3-0.7v-0.9c0.4,0.2,0.7,0.3,0.9,0.3c0.2,0.1,0.4,0,0.5-0.1c0.2-0.1,0.2-0.2,0.4-0.5l0.9,0.4
				v8.4l-1.3-0.7L44.7,249.6L44.7,249.6z"/>
			<path class="st0" d="M43.3,266c-0.3-0.5-0.5-1.2-0.5-1.8v-4.4c0-0.7,0.2-1.1,0.5-1.3c0.3-0.2,0.8-0.2,1.5,0.2
				c0.6,0.3,1.1,0.8,1.5,1.3c0.3,0.5,0.5,1.2,0.5,1.8v4.4c0,0.7-0.2,1.1-0.5,1.3c-0.3,0.2-0.8,0.2-1.5-0.2S43.6,266.6,43.3,266z
				 M45.4,265.7v-4.5c0-0.5-0.2-0.9-0.7-1.2c-0.5-0.2-0.7-0.1-0.7,0.5v4.5c0,0.5,0.2,0.9,0.7,1.2C45.1,266.4,45.4,266.3,45.4,265.7z
				"/>
			<path class="st0" d="M43.3,277.3c-0.3-0.5-0.5-1.2-0.5-1.8v-4.4c0-0.7,0.2-1.1,0.5-1.3c0.3-0.2,0.8-0.2,1.5,0.2
				c0.6,0.3,1.1,0.8,1.5,1.3c0.3,0.5,0.5,1.2,0.5,1.8v4.4c0,0.7-0.2,1.1-0.5,1.3c-0.3,0.2-0.8,0.2-1.5-0.2
				C44,278.3,43.6,277.9,43.3,277.3z M45.4,277v-4.5c0-0.5-0.2-0.9-0.7-1.2c-0.5-0.2-0.7-0.1-0.7,0.5v4.5c0,0.5,0.2,0.9,0.7,1.2
				S45.4,277.6,45.4,277z"/>
			<path class="st0" d="M44.7,283.5l-1.3-0.7v-0.9c0.4,0.2,0.7,0.3,0.9,0.3c0.2,0.1,0.4,0,0.5-0.1c0.2-0.1,0.2-0.2,0.4-0.5l0.9,0.4
				v8.3l-1.3-0.7L44.7,283.5L44.7,283.5z"/>
			<path class="st0" d="M43.3,299.9c-0.3-0.5-0.5-1.2-0.5-1.8v-4.4c0-0.7,0.2-1.1,0.5-1.3c0.3-0.2,0.8-0.2,1.5,0.2
				c0.6,0.3,1.1,0.8,1.5,1.3c0.3,0.5,0.5,1.2,0.5,1.8v4.4c0,0.7-0.2,1.1-0.5,1.3c-0.3,0.2-0.8,0.2-1.5-0.2S43.6,300.4,43.3,299.9z
				 M45.4,299.6V295c0-0.5-0.2-0.9-0.7-1.2c-0.5-0.2-0.7-0.1-0.7,0.5v4.5c0,0.5,0.2,0.9,0.7,1.2C45.1,300.3,45.4,300.1,45.4,299.6z"
				/>
		</g>
		<g>
			<path class="st0" d="M49.2,235.3c-0.3-0.5-0.5-1.2-0.5-1.8v-4.4c0-0.7,0.2-1.1,0.5-1.3c0.3-0.2,0.8-0.2,1.5,0.2
				c0.6,0.3,1.1,0.8,1.5,1.3c0.3,0.5,0.5,1.2,0.5,1.8v4.4c0,0.7-0.2,1.1-0.5,1.3c-0.3,0.2-0.8,0.2-1.5-0.2
				C50,236.2,49.5,235.7,49.2,235.3z M51.3,234.9v-4.5c0-0.5-0.2-0.9-0.7-1.2c-0.5-0.2-0.7-0.1-0.7,0.5v4.5c0,0.5,0.2,0.9,0.7,1.2
				C51.1,235.6,51.3,235.4,51.3,234.9z"/>
			<path class="st0" d="M49.2,246.6c-0.3-0.5-0.5-1.2-0.5-1.8v-4.4c0-0.7,0.2-1.1,0.5-1.3c0.3-0.2,0.8-0.2,1.5,0.2
				c0.6,0.3,1.1,0.8,1.5,1.3c0.3,0.5,0.5,1.2,0.5,1.8v4.4c0,0.7-0.2,1.1-0.5,1.3c-0.3,0.2-0.8,0.2-1.5-0.2
				C50,247.5,49.5,247.1,49.2,246.6z M51.3,246.1v-4.5c0-0.5-0.2-0.9-0.7-1.2c-0.5-0.2-0.7-0.1-0.7,0.5v4.5c0,0.5,0.2,0.9,0.7,1.2
				C51.1,246.8,51.3,246.7,51.3,246.1z"/>
			<path class="st0" d="M49.2,257.8c-0.3-0.5-0.5-1.2-0.5-1.8v-4.4c0-0.7,0.2-1.1,0.5-1.3c0.3-0.2,0.8-0.2,1.5,0.2
				c0.6,0.3,1.1,0.8,1.5,1.3c0.3,0.5,0.5,1.2,0.5,1.8v4.4c0,0.7-0.2,1.1-0.5,1.3c-0.3,0.2-0.8,0.2-1.5-0.2
				C50,258.8,49.5,258.3,49.2,257.8z M51.3,257.4v-4.5c0-0.5-0.2-0.9-0.7-1.2c-0.5-0.2-0.7-0.1-0.7,0.5v4.5c0,0.5,0.2,0.9,0.7,1.2
				S51.3,258,51.3,257.4z"/>
			<path class="st0" d="M50.6,263.9l-1.3-0.7v-0.9c0.4,0.2,0.7,0.3,0.9,0.3c0.2,0.1,0.4,0,0.5-0.1c0.2-0.1,0.2-0.2,0.4-0.5l0.9,0.4
				v8.3l-1.3-0.7L50.6,263.9L50.6,263.9z"/>
			<path class="st0" d="M50.6,275.2l-1.3-0.7v-0.9c0.4,0.2,0.7,0.3,0.9,0.3c0.2,0.1,0.4,0,0.5-0.1c0.2-0.1,0.2-0.2,0.4-0.5l0.9,0.4
				v8.3l-1.3-0.7L50.6,275.2L50.6,275.2z"/>
			<path class="st0" d="M50.6,286.5l-1.3-0.7v-0.9c0.4,0.2,0.7,0.3,0.9,0.3c0.2,0.1,0.4,0,0.5-0.1s0.2-0.2,0.4-0.5l0.9,0.4v8.3
				l-1.3-0.7L50.6,286.5L50.6,286.5z"/>
			<path class="st0" d="M49.2,302.9c-0.3-0.5-0.5-1.2-0.5-1.8v-4.4c0-0.7,0.2-1.1,0.5-1.3c0.3-0.2,0.8-0.2,1.5,0.2
				c0.7,0.4,1.1,0.8,1.5,1.3c0.3,0.5,0.5,1.2,0.5,1.8v4.4c0,0.7-0.2,1.1-0.5,1.3c-0.3,0.2-0.8,0.2-1.5-0.2
				C50,303.9,49.5,303.5,49.2,302.9z M51.3,302.5V298c0-0.5-0.2-0.9-0.7-1.2c-0.5-0.2-0.7-0.1-0.7,0.5v4.5c0,0.5,0.2,0.9,0.7,1.2
				C51.1,303.2,51.3,303.1,51.3,302.5z"/>
		</g>
		<g>
			<path class="st0" d="M56.5,233.1l-1.3-0.7v-0.9c0.4,0.2,0.7,0.3,0.9,0.3c0.2,0.1,0.4,0,0.5-0.1c0.2-0.1,0.2-0.2,0.4-0.5l0.9,0.4
				v8.3l-1.3-0.7L56.5,233.1L56.5,233.1z"/>
			<path class="st0" d="M56.5,244.3l-1.3-0.7v-0.9c0.4,0.2,0.7,0.3,0.9,0.3c0.2,0.1,0.4,0,0.5-0.1c0.2-0.1,0.2-0.2,0.4-0.5l0.9,0.4
				v8.3l-1.3-0.7L56.5,244.3L56.5,244.3z"/>
			<path class="st0" d="M56.5,255.6l-1.3-0.7v-0.9c0.4,0.2,0.7,0.3,0.9,0.3c0.2,0.1,0.4,0,0.5-0.1s0.2-0.2,0.4-0.5l0.9,0.4v8.4
				l-1.3-0.7L56.5,255.6L56.5,255.6z"/>
			<path class="st0" d="M55.1,272c-0.3-0.5-0.5-1.2-0.5-1.8v-4.4c0-0.7,0.2-1.1,0.5-1.3c0.3-0.2,0.8-0.2,1.5,0.2
				c0.6,0.3,1.1,0.8,1.5,1.3c0.3,0.5,0.5,1.2,0.5,1.8v4.4c0,0.7-0.2,1.1-0.5,1.3c-0.3,0.2-0.8,0.2-1.5-0.2
				C56,273,55.4,272.6,55.1,272z M57.2,271.7v-4.5c0-0.5-0.2-0.9-0.7-1.2c-0.5-0.2-0.7-0.1-0.7,0.5v4.5c0,0.5,0.2,0.9,0.7,1.2
				C57,272.4,57.2,272.3,57.2,271.7z"/>
			<path class="st0" d="M55.1,283.3c-0.3-0.5-0.5-1.2-0.5-1.8v-4.4c0-0.7,0.2-1.1,0.5-1.3c0.3-0.2,0.8-0.2,1.5,0.2
				c0.6,0.3,1.1,0.8,1.5,1.3c0.3,0.5,0.5,1.2,0.5,1.8v4.4c0,0.7-0.2,1.1-0.5,1.3c-0.3,0.2-0.8,0.2-1.5-0.2S55.4,283.9,55.1,283.3z
				 M57.2,283v-4.5c0-0.5-0.2-0.9-0.7-1.2c-0.5-0.2-0.7-0.1-0.7,0.5v4.5c0,0.5,0.2,0.9,0.7,1.2C57,283.7,57.2,283.6,57.2,283z"/>
			<path class="st0" d="M55.1,294.7c-0.3-0.5-0.5-1.2-0.5-1.8v-4.4c0-0.7,0.2-1.1,0.5-1.3c0.3-0.2,0.8-0.2,1.5,0.2
				c0.6,0.3,1.1,0.8,1.5,1.3c0.3,0.5,0.5,1.2,0.5,1.8v4.4c0,0.7-0.2,1.1-0.5,1.3c-0.3,0.2-0.8,0.2-1.5-0.2
				C56,295.6,55.4,295.2,55.1,294.7z M57.2,294.3v-4.5c0-0.5-0.2-0.9-0.7-1.2c-0.5-0.2-0.7-0.1-0.7,0.5v4.5c0,0.5,0.2,0.9,0.7,1.2
				C57,295,57.2,294.8,57.2,294.3z"/>
			<path class="st0" d="M56.5,300.7l-1.3-0.7v-0.9c0.4,0.2,0.7,0.3,0.9,0.3c0.2,0.1,0.4,0,0.5-0.1c0.2-0.1,0.2-0.2,0.4-0.5l0.9,0.4
				v8.3l-1.3-0.7L56.5,300.7L56.5,300.7z"/>
		</g>
	</g>
	<g>
		<path class="st1" d="M347.4,51l4.1,2.1c1.4,0.7,2.4,1.6,3.2,2.6s1.1,2.4,1.1,3.8v1.8c0,1.5-0.3,2.4-1.1,2.7
			c-0.7,0.4-1.7,0.3-3.2-0.4l-1.3-0.6v7.3l-2.7-1.4L347.4,51L347.4,51z M351.5,61c0.4,0.2,0.8,0.3,1.1,0.2c0.2-0.2,0.3-0.5,0.3-1.2
			v-2.1c0-0.6-0.1-1.2-0.3-1.5s-0.5-0.6-1.1-0.9l-1.3-0.6v5.5L351.5,61z"/>
		<path class="st1" d="M357.1,55.8l2.7,1.4v7.3l2.9,1.5v-7.3l2.7,1.4v17.8l-2.7-1.4v-8l-2.9-1.5v8l-2.7-1.4V55.8z"/>
		<path class="st1" d="M367.7,61.3l4.1,2.1c1.4,0.7,2.4,1.6,3.2,2.6c0.7,1.2,1.1,2.4,1.1,3.8v1.8c0,1.5-0.3,2.4-1.1,2.7
			s-1.7,0.3-3.2-0.4l-1.3-0.6v7.3l-2.7-1.4L367.7,61.3L367.7,61.3z M371.8,71.3c0.4,0.2,0.8,0.3,1.1,0.2c0.2-0.2,0.3-0.5,0.3-1.2
			v-2.1c0-0.6-0.1-1.2-0.3-1.5c-0.2-0.4-0.5-0.6-1.1-0.9l-1.3-0.6v5.5L371.8,71.3z"/>
		<path class="st1" d="M251.1,43.9c-0.7-1.2-1.1-2.4-1.1-3.8v-9.6c0-1.4,0.3-2.3,1.1-2.6c0.7-0.4,1.7-0.3,3,0.4
			c1.4,0.6,2.3,1.6,3,2.6c0.7,1.2,1.1,2.4,1.1,3.8v1.9l-2.6-1.3v-2c0-1.2-0.4-1.9-1.4-2.4c-0.9-0.4-1.4-0.2-1.4,0.9v10
			c0,1.2,0.4,1.9,1.4,2.3c0.9,0.4,1.4,0.2,1.4-0.9v-2.7l2.6,1.3v2.5c0,1.4-0.3,2.3-1.1,2.6c-0.7,0.3-1.7,0.3-3-0.4
			C252.8,46,251.7,45,251.1,43.9z"/>
		<path class="st1" d="M260.5,48.7c-0.7-1.2-1.1-2.4-1.1-3.9v-1.1L262,45v1.2c0,1.2,0.5,1.9,1.5,2.5c0.4,0.3,0.8,0.3,1.1,0.1
			c0.2-0.2,0.3-0.5,0.3-1.2c0-0.7-0.2-1.5-0.5-2.2c-0.3-0.7-0.9-1.8-1.9-2.9c-1.2-1.6-2-2.9-2.4-4s-0.7-2.1-0.7-3.2
			c0-1.4,0.3-2.3,1.1-2.7c0.7-0.4,1.7-0.3,3,0.4c1.4,0.6,2.3,1.6,3,2.6c0.7,1.2,1.1,2.4,1.1,3.9v0.7l-2.7-1.3v-0.9
			c0-0.6-0.1-1.2-0.3-1.5c-0.2-0.4-0.5-0.7-1.1-0.9c-0.9-0.4-1.4-0.2-1.4,1.1c0,0.6,0.2,1.3,0.5,2c0.3,0.7,0.9,1.8,1.9,2.9
			c1.2,1.6,2,2.9,2.4,4c0.4,1.1,0.6,2.1,0.6,3.3c0,1.5-0.3,2.4-1.1,2.7c-0.7,0.4-1.8,0.3-3.2-0.4C262.2,50.7,261.2,49.9,260.5,48.7z
			"/>
		<path class="st1" d="M269.9,53.4c-0.7-1.2-1.1-2.4-1.1-3.9v-1.1l2.6,1.3v1.2c0,1.2,0.5,1.9,1.5,2.5c0.4,0.3,0.8,0.3,1.1,0.1
			c0.2-0.2,0.3-0.5,0.3-1.2c0-0.7-0.2-1.5-0.5-2.2c-0.3-0.7-0.9-1.8-1.9-2.9c-1.2-1.6-2-2.9-2.4-4s-0.7-2.1-0.7-3.2
			c0-1.4,0.3-2.3,1.1-2.7c0.7-0.4,1.7-0.3,3,0.4c1.4,0.6,2.3,1.6,3,2.6c0.7,1.2,1.1,2.4,1.1,3.9V45l-2.6-1.3v-0.9
			c0-0.6-0.1-1.2-0.3-1.5c-0.2-0.4-0.5-0.7-1.1-0.9c-0.9-0.4-1.4-0.2-1.4,1.1c0,0.6,0.2,1.3,0.5,2s0.9,1.8,1.9,2.9
			c1.2,1.6,2,2.9,2.4,4s0.6,2.1,0.6,3.3c0,1.5-0.3,2.4-1.1,2.7c-0.7,0.4-1.8,0.3-3.2-0.4C271.6,55.4,270.6,54.5,269.9,53.4z"/>
		<path class="st1" d="M170.4,323.4c-0.7-1.2-1.1-2.4-1.1-3.9v-1.1l2.6,1.3v1.2c0,1.2,0.5,1.9,1.5,2.5c0.4,0.3,0.8,0.3,1.1,0.1
			c0.2-0.2,0.3-0.5,0.3-1.2c0-0.7-0.2-1.5-0.5-2.2c-0.3-0.7-0.9-1.8-1.9-2.9c-1.2-1.6-2-2.9-2.4-4c-0.4-1.1-0.7-2.1-0.7-3.2
			c0-1.4,0.3-2.3,1.1-2.7c0.7-0.4,1.7-0.3,3,0.4c1.4,0.6,2.3,1.6,3,2.6c0.7,1.2,1.1,2.4,1.1,3.9v0.7l-2.6-1.3v-0.9
			c0-0.6-0.1-1.2-0.3-1.5c-0.2-0.4-0.5-0.7-1.1-0.9c-0.9-0.4-1.4-0.2-1.4,1.1c0,0.6,0.2,1.3,0.5,2c0.3,0.7,0.9,1.8,1.9,2.9
			c1.2,1.6,2,2.9,2.4,4c0.4,1.1,0.6,2.1,0.6,3.3c0,1.5-0.3,2.4-1.1,2.7c-0.7,0.4-1.8,0.3-3.2-0.4
			C172.2,325.4,171.3,324.6,170.4,323.4z"/>
		<path class="st1" d="M185.2,331.7c-0.5-0.1-1.2-0.3-1.8-0.6c-1.4-0.6-2.4-1.6-3.2-2.7c-0.7-1.2-1.1-2.4-1.1-3.9v-9.4
			c0-1.4,0.3-2.3,1.1-2.7c0.7-0.4,1.8-0.3,3.2,0.4c1.4,0.6,2.4,1.6,3.2,2.7c0.7,1.2,1.1,2.4,1.1,3.9v9.4c0,1.2-0.2,2-0.7,2.5
			c0.1,0.2,0.2,0.4,0.4,0.5c0.1,0.1,0.3,0.3,0.6,0.4l0.4,0.2v2.6l-0.7-0.4C186.2,333.9,185.6,333,185.2,331.7z M184.8,327.5v-9.7
			c0-1.2-0.5-2-1.5-2.5c-0.9-0.4-1.5-0.2-1.5,1.1v9.7c0,1.2,0.5,2,1.5,2.5C184.4,329.1,184.8,328.7,184.8,327.5z"/>
		<path class="st1" d="M189.4,316.2l2.7,1.4v15.2l4.6,2.3v2.6l-7.4-3.7V316.2L189.4,316.2z"/>
		<path class="st1" d="M9.4,119l-3-10.2l2.9,1.5l1.9,6.7l0,0l1.9-4.8l2.6,1.3l-3,7.1l3.3,10.7l-2.9-1.5l-2-7.1l0,0l-2.1,5.1
			l-2.6-1.3L9.4,119z"/>
		<path class="st1" d="M17.2,114.4l4,2L23,130l0,0l1.8-11.8l4,2V138l-2.6-1.3v-13.4l0,0l-2,12.4l-2.3-1.2l-2.1-14.6l0,0v13.4
			l-2.4-1.2L17.2,114.4L17.2,114.4z"/>
		<path class="st1" d="M30.9,121.2l2.7,1.4v15.2l4.6,2.2v2.6l-7.4-3.7V121.2L30.9,121.2z"/>
		<path class="st1" d="M317.5,298.4v-2.5c0.3,0.2,0.5,0.4,0.9,0.5c0.5,0.3,0.9,0.4,1.2,0.2c0.3-0.2,0.4-0.4,0.4-1.1v-13l2.6,1.3
			v12.9c0,1.4-0.3,2.3-0.9,2.6c-0.6,0.4-1.6,0.2-2.9-0.4C318.3,298.9,317.9,298.6,317.5,298.4z"/>
		<path class="st1" d="M325,301.3c-0.7-1.1-1-2.3-1-3.7v-1l2.5,1.2v1.1c0,1.1,0.5,1.8,1.4,2.4c0.4,0.3,0.8,0.3,1,0.1
			c0.2-0.2,0.3-0.5,0.3-1.1c0-0.7-0.2-1.4-0.5-2.1c-0.3-0.7-0.9-1.7-1.8-2.8c-1.1-1.5-1.9-2.8-2.3-3.8c-0.4-1-0.7-2-0.7-3
			c0-1.3,0.3-2.2,1-2.6c0.7-0.4,1.6-0.3,2.9,0.4c1.3,0.6,2.2,1.5,2.9,2.5c0.7,1.1,1,2.3,1,3.7v0.7l-2.5-1.2v-0.9
			c0-0.6-0.1-1.1-0.3-1.4c-0.2-0.4-0.5-0.7-1-0.9c-0.9-0.4-1.3-0.2-1.3,1c0,0.6,0.2,1.2,0.5,1.9c0.3,0.7,0.9,1.7,1.8,2.8
			c1.1,1.5,1.9,2.8,2.3,3.8s0.6,2,0.6,3.1c0,1.4-0.3,2.3-1,2.6c-0.7,0.4-1.7,0.3-3-0.4C326.8,303.3,325.8,302.4,325,301.3z"/>
	</g>
</g>
</svg>
