<?xml version="1.0" encoding="utf-8"?>
<!-- Generator: Adobe Illustrator 24.0.1, SVG Export Plug-In . SVG Version: 6.00 Build 0)  -->
<svg version="1.1" id="Layer_1" xmlns="http://www.w3.org/2000/svg" xmlns:xlink="http://www.w3.org/1999/xlink" x="0px" y="0px"
	 viewBox="0 0 300 300" style="enable-background:new 0 0 300 300;" xml:space="preserve">
<style type="text/css">
	.st0{fill:url(#SVGID_1_);}
	.st1{fill:url(#SVGID_2_);stroke:#FFFFFF;}
</style>
<linearGradient id="SVGID_1_" gradientUnits="userSpaceOnUse" x1="49.7808" y1="231.5612" x2="269.095" y2="57.4696" gradientTransform="matrix(1 0 0 -1 0 302)">
	<stop  offset="0" style="stop-color:#9013FE"/>
	<stop  offset="1" style="stop-color:#6610F2"/>
</linearGradient>
<path class="st0" d="M52.2,76.1C51.7,62.5,62.3,50,76.6,50h146.7c14.3,0,24.9,12.5,24.4,26.1c-0.5,13.1,0.1,30,4.4,43.8
	c4.3,13.8,11.5,22.6,23.3,23.7v12.7c-11.8,1.1-19,9.9-23.3,23.7c-4.3,13.8-4.8,30.7-4.4,43.8c0.5,13.6-10.1,26.1-24.4,26.1H76.6
	c-14.3,0-24.9-12.5-24.4-26.1c0.5-13.1-0.1-30-4.4-43.8c-4.3-13.8-11.5-22.6-23.3-23.7v-12.7c11.8-1.1,19-9.9,23.3-23.7
	C52.1,106.1,52.7,89.2,52.2,76.1z"/>
<linearGradient id="SVGID_2_" gradientUnits="userSpaceOnUse" x1="117.2289" y1="196.9419" x2="166.2515" y2="114.034" gradientTransform="matrix(1 0 0 -1 0 302)">
	<stop  offset="0" style="stop-color:#FFFFFF"/>
	<stop  offset="1" style="stop-color:#F1E5FC"/>
</linearGradient>
<path class="st1" d="M155.4,203.2c23.2,0,37.2-11.4,37.2-30.1c0-14.2-10-24.4-24.8-26v-0.6c10.9-1.8,19.4-11.9,19.4-23.1
	c0-16.1-12.7-26.5-32-26.5h-43.5v106.4H155.4z M128.6,110.3h22.5c12.2,0,19.2,5.5,19.2,15.3c0,10.5-8.1,16.4-22.7,16.4h-19
	C128.6,142.1,128.6,110.3,128.6,110.3z M128.6,189.7v-35H151c16,0,24.3,5.9,24.3,17.4c0,11.5-8.1,17.6-23.3,17.6H128.6z"/>
</svg>
