<?xml version="1.0" encoding="utf-8"?>
<!-- Generator: Adobe Illustrator 24.0.1, SVG Export Plug-In . SVG Version: 6.00 Build 0)  -->
<svg version="1.1" id="Layer_1" xmlns="http://www.w3.org/2000/svg" xmlns:xlink="http://www.w3.org/1999/xlink" x="0px" y="0px"
	 viewBox="0 0 20 20" style="enable-background:new 0 0 20 20;" xml:space="preserve">
<style type="text/css">
	.st0{fill:#FFFFFF;}
</style>
<title>facebook1</title>
<path class="st0" d="M20,10.1c0-1.4-0.3-2.7-0.8-3.9S18,3.9,17,3c-0.9-0.9-2-1.6-3.2-2.2c-1.1-0.4-2.4-0.7-3.8-0.7S7.3,0.4,6.1,0.9
	S3.9,2.1,2.9,3S1.3,5,0.7,6.2S0,8.7,0,10.1c0,1.2,0.2,2.4,0.6,3.4s1,2.1,1.7,2.9C3,17.1,3.9,18,4.9,18.5c1,0.6,2,1,3.1,1.2v-6.7H6
	v-3h2V7.6c0-0.7,0.2-1.2,0.5-1.8c0.3-0.5,0.7-1,1.3-1.3c0.5-0.2,1-0.4,1.7-0.4H14v3h-2c-0.3,0-0.5,0.1-0.7,0.3S11,7.8,11,8.1v2h3v3
	h-3V20c1.3-0.1,2.5-0.5,3.6-1s2-1.3,2.9-2.2c0.8-0.9,1.4-1.9,1.9-3S20,11.4,20,10.1L20,10.1z"/>
</svg>
