<?xml version="1.0" encoding="utf-8"?>
<!-- Generator: Adobe Illustrator 24.0.1, SVG Export Plug-In . SVG Version: 6.00 Build 0)  -->
<svg version="1.1" id="Layer_1" xmlns="http://www.w3.org/2000/svg" xmlns:xlink="http://www.w3.org/1999/xlink" x="0px" y="0px"
	 viewBox="0 0 24 24" style="enable-background:new 0 0 24 24;" xml:space="preserve">
<style type="text/css">
	.st0{fill:#232933;}
</style>
<title>facebook1</title>
<path class="st0" d="M22,12c0-1.4-0.3-2.7-0.8-3.9S20,5.8,19,4.9c-0.9-0.9-2-1.6-3.2-2.2C14.7,2.3,13.4,2,12,2S9.3,2.3,8.1,2.8
	S5.9,4,4.9,4.9s-1.6,2-2.2,3.2S2,10.6,2,12c0,1.2,0.2,2.4,0.6,3.4s1,2.1,1.7,2.9s1.6,1.6,2.6,2.2s2,1,3.1,1.2V15H8v-3h2V9.5
	c0-0.7,0.2-1.2,0.5-1.8c0.3-0.5,0.7-1,1.3-1.3c0.5-0.2,1-0.4,1.7-0.4H16v3h-2c-0.3,0-0.5,0.1-0.7,0.3S13,9.7,13,10v2h3v3h-3v6.9
	c1.3-0.1,2.5-0.5,3.6-1s2-1.3,2.9-2.2c0.8-0.9,1.4-1.9,1.9-3S22,13.3,22,12L22,12z"/>
</svg>
