<svg id="Layer_1" data-name="Layer 1" xmlns="http://www.w3.org/2000/svg" viewBox="0 0 300 300"><defs><style>.cls-1{fill:#dd2b1b;fill-rule:evenodd;}</style></defs><title>logo TECH</title><path class="cls-1" d="M246.25,141.12,158.88,53.75a12.86,12.86,0,0,0-18.15,0L122.59,71.9l23,23a15.28,15.28,0,0,1,19.32,19.55l22.21,22.14a15.21,15.21,0,1,1-9.23,8.6l-20.64-20.65V179a14.34,14.34,0,0,1,4.06,2.89,15.32,15.32,0,1,1-21.66,0,16.07,16.07,0,0,1,5-3.36V123.6a16.07,16.07,0,0,1-5-3.36,15.25,15.25,0,0,1-3.29-16.74L113.67,80.82,53.75,140.73a12.86,12.86,0,0,0,0,18.15l87.37,87.37a13,13,0,0,0,18.23,0l86.9-86.9a13,13,0,0,0,0-18.23m0,0Z"/></svg>