<?xml version="1.0" encoding="utf-8"?>
<!-- Generator: Adobe Illustrator 24.0.1, SVG Export Plug-In . SVG Version: 6.00 Build 0)  -->
<svg version="1.1" id="Layer_1" xmlns="http://www.w3.org/2000/svg" xmlns:xlink="http://www.w3.org/1999/xlink" x="0px" y="0px"
	 viewBox="0 0 12 12" style="enable-background:new 0 0 12 12;" xml:space="preserve">
<style type="text/css">
	.st0{fill-rule:evenodd;clip-rule:evenodd;fill:#FFFFFF;}
</style>
<path class="st0" d="M6,0.1c-3.3,0-6,2.7-6,6c0,2.7,1.7,4.9,4.1,5.7c0.3,0.1,0.4-0.1,0.4-0.3c0-0.1,0-0.6,0-1.1
	C3,10.7,2.6,10,2.5,9.7C2.4,9.6,2.1,9,1.9,8.9s-0.5-0.4,0-0.4s0.8,0.4,0.9,0.6C3.3,10,4.2,9.8,4.5,9.6c0.1-0.4,0.2-0.7,0.4-0.8
	c-1.3-0.1-2.7-0.7-2.7-3c0-0.7,0.2-1.2,0.6-1.6C2.7,4.1,2.5,3.5,2.9,2.6c0,0,0.5-0.2,1.7,0.6C5,3.1,5.5,3,6,3s1,0.1,1.5,0.2
	c1.1-0.8,1.6-0.6,1.6-0.6C9.4,3.4,9.2,4,9.2,4.2c0.4,0.4,0.6,1,0.6,1.6c0,2.3-1.4,2.8-2.7,3C7.3,9,7.5,9.3,7.5,9.9
	c0,0.8,0,1.4,0,1.6c0,0.2,0.1,0.3,0.4,0.3c2.4-0.8,4.1-3,4.1-5.7C12,2.8,9.3,0.1,6,0.1z"/>
</svg>
