<?xml version="1.0" encoding="utf-8"?>
<!-- Generator: Adobe Illustrator 24.0.1, SVG Export Plug-In . SVG Version: 6.00 Build 0)  -->
<svg version="1.1" id="Layer_1" xmlns="http://www.w3.org/2000/svg" xmlns:xlink="http://www.w3.org/1999/xlink" x="0px" y="0px"
	 viewBox="0 0 300 300" style="enable-background:new 0 0 300 300;" xml:space="preserve">
<style type="text/css">
	.st0{fill:#E535AB;}
</style>
<title>logo TECH</title>
<path class="st0" d="M230.1,175.6c-1.5-0.9-3.2-1.5-4.8-1.9v-47.5c1.6-0.4,3.3-1,4.8-1.9c8.5-5,11.4-15.8,6.5-24.4
	c-5-8.5-15.8-11.4-24.4-6.5c-1.5,0.9-2.9,2-4,3.2l-41.1-23.7c0.5-1.6,0.7-3.3,0.7-5c0-9.8-8-17.8-17.8-17.8s-17.8,8-17.8,17.8
	c0,1.8,0.3,3.5,0.7,5.1L91.8,96.6c-1.2-1.2-2.5-2.3-4.1-3.2c-8.5-4.9-19.3-2.1-24.3,6.4c-5,8.5-2,19.5,6.5,24.4
	c1.5,0.9,3.2,1.5,4.8,1.9v47.5c-1.6,0.4-3.3,1-4.8,1.9c-8.5,5-11.4,15.8-6.5,24.4c4.9,8.5,15.8,11.4,24.4,6.5c1.5-0.9,2.8-2,3.9-3.2
	l41.2,23.8c-0.5,1.6-0.8,3.3-0.8,5.1c0,9.8,7.9,17.8,17.8,17.8c9.9,0,17.8-8,17.8-17.8c0-2-0.3-3.9-0.9-5.7l41-23.6
	c1.2,1.4,2.7,2.6,4.4,3.6c8.5,5,19.5,2,24.4-6.5C241.5,191.4,238.7,180.6,230.1,175.6z M96.2,186.8c-0.4-1.6-1-3.2-1.9-4.7
	c-0.9-1.5-1.9-2.8-3.1-3.9l53.9-93.3c1.6,0.5,3.2,0.7,5,0.7c1.7,0,3.4-0.3,5-0.7l53.8,93.3c-1.2,1.1-2.2,2.4-3.1,3.9
	c-0.9,1.5-1.5,3.1-1.9,4.7H96.2z M204.1,104c-1.3,4.5-0.8,9.4,1.7,13.8c2.5,4.4,6.6,7.3,11.1,8.4v47.6c-0.2,0.1-0.5,0.1-0.7,0.2
	l-53.8-93.2c0.2-0.2,0.4-0.3,0.5-0.5L204.1,104z M137.7,80.7L83.9,174c-0.2-0.1-0.5-0.1-0.7-0.2v-47.7c4.5-1.1,8.6-4,11.1-8.4
	c2.5-4.3,2.9-9.3,1.7-13.7l41.3-23.8C137.4,80.3,137.6,80.5,137.7,80.7z M163.1,220.2c-3.3-3.5-7.9-5.8-13.1-5.8
	c-5,0-9.5,2.1-12.8,5.4L95.9,196c0.1-0.2,0.1-0.5,0.2-0.7h107.7c0.1,0.4,0.2,0.8,0.3,1.2L163.1,220.2z"/>
</svg>
