<?xml version="1.0" encoding="UTF-8"?>
<!DOCTYPE svg PUBLIC "-//W3C//DTD SVG 1.1//EN" "http://www.w3.org/Graphics/SVG/1.1/DTD/svg11.dtd">
<!-- Creator: CorelDRAW X7 -->
<svg xmlns="http://www.w3.org/2000/svg" xml:space="preserve" width="25.5438mm" height="29.0306mm" version="1.1" style="shape-rendering:geometricPrecision; text-rendering:geometricPrecision; image-rendering:optimizeQuality; fill-rule:evenodd; clip-rule:evenodd"
viewBox="0 0 2554 2903"
 xmlns:xlink="http://www.w3.org/1999/xlink">
 <defs>
  <style type="text/css">
   <![CDATA[
    .fil0 {fill:#E44D26}
    .fil3 {fill:#EBEBEB}
    .fil1 {fill:#F16529}
    .fil2 {fill:white}
   ]]>
  </style>
 </defs>
 <g id="Capa_x0020_1">
  <metadata id="CorelCorpID_0Corel-Layer"/>
  <g id="_841637720">
   <polygon id="path5113" class="fil0" points="237,2610 0,0 2554,1 2319,2608 1275,2903 "/>
   <polygon id="path5117" class="fil1" points="1277,231 2325,231 2127,2467 1277,2702 "/>
   <polygon class="fil2" points="447,560 2122,560 2091,867 787,866 811,1220 2068,1220 1998,2092 1277,2296 571,2092 537,1673 835,1673 846,1857 1277,1980 1674,1871 1690,1499 522,1498 "/>
   <polygon class="fil3" points="447,560 1277,560 1277,867 787,866 811,1220 1277,1220 1277,1498 522,1498 "/>
   <polygon class="fil3" points="1277,2296 571,2092 537,1673 835,1673 846,1857 1277,1980 "/>
  </g>
 </g>
</svg>
