<svg id="Layer_1" data-name="Layer 1" xmlns="http://www.w3.org/2000/svg" viewBox="0 0 300 300"><defs><style>.cls-1{fill:#e44e27;}.cls-1,.cls-2,.cls-3,.cls-4{fill-rule:evenodd;}.cls-2{fill:#ec652b;}.cls-3{fill:#fff;}.cls-4{fill:#ebebeb;}</style></defs><title>logo TECH</title><polygon class="cls-1" points="78.35 229.81 62.02 50 237.98 50.07 221.79 229.68 149.86 250 78.35 229.81"/><polygon class="cls-2" points="150 65.92 222.2 65.92 208.56 219.96 150 236.15 150 65.92"/><polygon class="cls-3" points="92.82 88.58 208.22 88.58 206.08 109.8 116.24 109.66 117.89 134.05 204.5 134.05 199.67 194.2 150 208.18 101.36 194.13 99.02 165.26 119.55 165.26 120.31 177.94 150 186.41 177.35 178.9 178.52 153.27 98.05 153.27 92.82 88.58"/><polygon class="cls-4" points="92.82 88.58 150 88.58 150 109.73 116.24 109.66 117.89 134.05 150 134.05 150 153.27 98.05 153.27 92.82 88.58"/><polygon class="cls-4" points="150 208.18 101.36 194.13 99.02 165.26 119.55 165.26 120.31 177.94 150 186.41 150 208.18"/></svg>