<?xml version="1.0" encoding="utf-8"?>
<!-- Generator: Adobe Illustrator 24.0.1, SVG Export Plug-In . SVG Version: 6.00 Build 0)  -->
<svg version="1.1" id="Layer_1" xmlns="http://www.w3.org/2000/svg" xmlns:xlink="http://www.w3.org/1999/xlink" x="0px" y="0px"
	 viewBox="0 0 300 300" style="enable-background:new 0 0 300 300;" xml:space="preserve">
<style type="text/css">
	.st0{fill-rule:evenodd;clip-rule:evenodd;fill:#E44E27;}
	.st1{fill-rule:evenodd;clip-rule:evenodd;fill:#EC652B;}
	.st2{fill-rule:evenodd;clip-rule:evenodd;fill:#FFFFFF;}
	.st3{fill-rule:evenodd;clip-rule:evenodd;fill:#EBEBEB;}
</style>
<title>logo TECH</title>
<g>
	<polygon class="st0" points="78.3,229.8 62,50 238,50.1 221.8,229.7 149.9,250 	"/>
	<polygon class="st1" points="150,65.9 222.2,65.9 208.5,219.9 150,236.1 	"/>
	<polygon class="st2" points="92.8,88.6 208.2,88.6 206.1,109.8 116.3,109.7 117.9,134.1 204.5,134.1 199.7,194.2 150,208.2 
		101.3,194.1 99,165.3 119.5,165.3 120.3,177.9 150,186.4 177.3,178.9 178.5,153.3 98.1,153.3 	"/>
	<polygon class="st3" points="92.8,88.6 150,88.6 150,109.7 116.3,109.7 117.9,134.1 150,134.1 150,153.3 98.1,153.3 	"/>
	<polygon class="st3" points="150,208.2 101.3,194.1 99,165.3 119.5,165.3 120.3,177.9 150,186.4 	"/>
</g>
</svg>
