<?xml version="1.0" encoding="utf-8"?>
<!-- Generator: Adobe Illustrator 24.0.1, SVG Export Plug-In . SVG Version: 6.00 Build 0)  -->
<svg version="1.1" id="Layer_1" xmlns="http://www.w3.org/2000/svg" xmlns:xlink="http://www.w3.org/1999/xlink" x="0px" y="0px"
	 viewBox="0 0 22 22" style="enable-background:new 0 0 22 22;" xml:space="preserve">
<style type="text/css">
	.st0{fill:#FFFFFF;}
</style>
<title>instagram1</title>
<path class="st0" d="M6,0C4.3,0,2.8,0.7,1.8,1.8S0,4.3,0,6v10c0,1.7,0.7,3.2,1.8,4.2S4.3,22,6,22h10c1.7,0,3.2-0.7,4.2-1.8
	S22,17.7,22,16V6c0-1.7-0.7-3.2-1.8-4.2S17.7,0,16,0H6z M6,2h10c1.1,0,2.1,0.4,2.8,1.2S20,4.9,20,6v10c0,1.1-0.4,2.1-1.2,2.8
	S17.1,20,16,20H6c-1.1,0-2.1-0.4-2.8-1.2S2,17.1,2,16V6c0-1.1,0.4-2.1,1.2-2.8S4.9,2,6,2z M16,10.2c-0.1-1-0.6-1.9-1.2-2.6
	C14,6.8,13,6.2,11.8,6c-0.5-0.1-1-0.1-1.5,0C8.9,6.2,7.8,7,7,8s-1.1,2.3-0.9,3.7s0.9,2.5,2,3.3c1.1,0.8,2.3,1.1,3.7,0.9
	s2.5-0.9,3.3-2C15.9,12.8,16.2,11.6,16,10.2L16,10.2z M14,10.5c0.1,0.8-0.1,1.6-0.6,2.2s-1.1,1.1-2,1.2s-1.6-0.1-2.2-0.6
	s-1.1-1.1-1.2-2s0.1-1.6,0.6-2.2s1.1-1.1,2-1.2c0.3,0,0.6,0,0.9,0c0.7,0.1,1.4,0.5,1.8,1C13.7,9.4,13.9,9.9,14,10.5L14,10.5z
	 M16.5,6.5c0.6,0,1-0.4,1-1s-0.4-1-1-1s-1,0.4-1,1S15.9,6.5,16.5,6.5z"/>
</svg>
