<?xml version="1.0" encoding="utf-8"?>
<!-- Generator: Adobe Illustrator 24.0.1, SVG Export Plug-In . SVG Version: 6.00 Build 0)  -->
<svg version="1.1" id="Layer_1" xmlns="http://www.w3.org/2000/svg" xmlns:xlink="http://www.w3.org/1999/xlink" x="0px" y="0px"
	 viewBox="0 0 12 12" style="enable-background:new 0 0 12 12;" xml:space="preserve">
<style type="text/css">
	.st0{fill:url(#SVGID_1_);}
	.st1{fill:url(#SVGID_2_);}
	.st2{fill:#FFFFFF;}
</style>
<radialGradient id="SVGID_1_" cx="-142.5562" cy="-435.3301" r="5.9989" gradientTransform="matrix(0 -1.982 -1.8439 0 -799.5177 -269.6211)" gradientUnits="userSpaceOnUse">
	<stop  offset="0" style="stop-color:#FFDD55"/>
	<stop  offset="0.1" style="stop-color:#FFDD55"/>
	<stop  offset="0.5" style="stop-color:#FF543E"/>
	<stop  offset="1" style="stop-color:#C837AB"/>
</radialGradient>
<path class="st0" d="M6,0C3.5,0,2.8,0,2.6,0c-0.5,0-0.8,0.1-1.2,0.3C1.2,0.4,1,0.6,0.8,0.8C0.4,1.2,0.1,1.7,0.1,2.3C0,2.6,0,2.6,0,4
	C0,4.5,0,5.2,0,6c0,2.5,0,3.2,0,3.4c0,0.5,0.1,0.8,0.3,1.2c0.3,0.7,0.9,1.2,1.6,1.3C2.2,11.9,2.5,12,2.8,12C3,12,4.5,12,6,12
	s3,0,3.2,0c0.4,0,0.6-0.1,0.9-0.1c0.7-0.2,1.3-0.7,1.6-1.3c0.2-0.3,0.2-0.7,0.3-1.1c0-0.1,0-1.8,0-3.4c0-1.6,0-3.3,0-3.4
	c0-0.5-0.1-0.8-0.3-1.1c-0.1-0.3-0.3-0.5-0.5-0.7c-0.4-0.4-0.9-0.6-1.5-0.7C9.4,0,9.4,0,8,0H6z"/>
<radialGradient id="SVGID_2_" cx="221.1289" cy="-158.7382" r="5.9989" gradientTransform="matrix(0.1739 0.8687 3.5818 -0.7172 528.0952 -305.0771)" gradientUnits="userSpaceOnUse">
	<stop  offset="0" style="stop-color:#3771C8"/>
	<stop  offset="0.128" style="stop-color:#3771C8"/>
	<stop  offset="1" style="stop-color:#6600FF;stop-opacity:0"/>
</radialGradient>
<path class="st1" d="M6,0C3.5,0,2.8,0,2.6,0c-0.5,0-0.8,0.1-1.2,0.3C1.2,0.4,1,0.6,0.8,0.8C0.4,1.2,0.1,1.7,0.1,2.3C0,2.6,0,2.6,0,4
	C0,4.5,0,5.2,0,6c0,2.5,0,3.2,0,3.4c0,0.5,0.1,0.8,0.3,1.2c0.3,0.7,0.9,1.2,1.6,1.3C2.2,11.9,2.5,12,2.8,12C3,12,4.5,12,6,12
	s3,0,3.2,0c0.4,0,0.6-0.1,0.9-0.1c0.7-0.2,1.3-0.7,1.6-1.3c0.2-0.3,0.2-0.7,0.3-1.1c0-0.1,0-1.8,0-3.4c0-1.6,0-3.3,0-3.4
	c0-0.5-0.1-0.8-0.3-1.1c-0.1-0.3-0.3-0.5-0.5-0.7c-0.4-0.4-0.9-0.6-1.5-0.7C9.4,0,9.4,0,8,0H6z"/>
<path class="st2" d="M6,1.6c-1.2,0-1.4,0-1.8,0c-0.5,0-0.8,0.1-1.1,0.2C2.8,1.9,2.6,2.1,2.3,2.3C2.1,2.6,1.9,2.8,1.8,3.1
	C1.7,3.4,1.6,3.7,1.6,4.2c0,0.5,0,0.6,0,1.8s0,1.4,0,1.8c0,0.5,0.1,0.8,0.2,1.1c0.1,0.3,0.3,0.5,0.5,0.8c0.2,0.2,0.5,0.4,0.8,0.5
	c0.3,0.1,0.6,0.2,1.1,0.2c0.5,0,0.6,0,1.8,0c1.2,0,1.4,0,1.8,0c0.5,0,0.8-0.1,1.1-0.2c0.3-0.1,0.5-0.3,0.8-0.5
	c0.2-0.2,0.4-0.5,0.5-0.8c0.1-0.3,0.2-0.6,0.2-1.1c0-0.5,0-0.6,0-1.8s0-1.4,0-1.8c0-0.5-0.1-0.8-0.2-1.1c-0.1-0.3-0.3-0.5-0.5-0.8
	C9.4,2.1,9.2,1.9,8.9,1.8C8.6,1.7,8.3,1.6,7.8,1.6C7.4,1.6,7.2,1.6,6,1.6L6,1.6z M5.6,2.4c0.1,0,0.2,0,0.4,0c1.2,0,1.3,0,1.8,0
	c0.4,0,0.7,0.1,0.8,0.2C8.8,2.6,9,2.7,9.1,2.9C9.3,3,9.4,3.2,9.5,3.4c0.1,0.2,0.1,0.4,0.2,0.8c0,0.5,0,0.6,0,1.8s0,1.3,0,1.8
	c0,0.4-0.1,0.7-0.2,0.8C9.4,8.8,9.3,9,9.1,9.1C9,9.3,8.8,9.4,8.6,9.5C8.5,9.5,8.2,9.6,7.8,9.6c-0.5,0-0.6,0-1.8,0
	c-1.2,0-1.3,0-1.8,0c-0.4,0-0.7-0.1-0.8-0.2C3.2,9.4,3,9.3,2.9,9.1C2.7,9,2.6,8.8,2.5,8.6C2.5,8.5,2.4,8.2,2.4,7.8
	c0-0.5,0-0.6,0-1.8s0-1.3,0-1.8c0-0.4,0.1-0.7,0.2-0.8C2.6,3.2,2.7,3,2.9,2.9C3,2.7,3.2,2.6,3.4,2.5c0.2-0.1,0.4-0.1,0.8-0.2
	C4.6,2.4,4.8,2.4,5.6,2.4L5.6,2.4z M8.4,3.1c-0.3,0-0.5,0.2-0.5,0.5c0,0.3,0.2,0.5,0.5,0.5s0.5-0.2,0.5-0.5S8.7,3.1,8.4,3.1L8.4,3.1
	z M6,3.7c-1.3,0-2.3,1-2.3,2.3s1,2.3,2.3,2.3s2.3-1,2.3-2.3S7.3,3.7,6,3.7L6,3.7z M6,4.5c0.8,0,1.5,0.7,1.5,1.5
	c0,0.8-0.7,1.5-1.5,1.5C5.2,7.5,4.5,6.8,4.5,6C4.5,5.2,5.2,4.5,6,4.5z"/>
</svg>
