<svg id="Layer_1" data-name="Layer 1" xmlns="http://www.w3.org/2000/svg" viewBox="0 0 300 300"><defs><style>.cls-1{fill:#f6df1a;}.cls-2{fill:#141515;fill-rule:evenodd;}</style></defs><title>logo TECH</title><rect class="cls-1" x="50" y="50" width="200" height="200"/><polygon class="cls-2" points="157.91 196.28 195.03 196.28 186.96 235.28 163.55 243.11 143.26 235.36 145.22 225.1 153.84 225.1 153.29 229.17 165.5 233.95 179.52 229.17 184.38 204.97 156.26 204.97 157.91 196.28"/><path class="cls-2" d="M198.94,196.28H243l-1.8,8.61H206.3l-1.17,5.56h35L235,235.2,211.63,243l-20.36-7.75,2-10.18h8.54l-.55,4,12.22,4.78,14.09-4.7,2-9.87H194.4c1.57-7.67,3-15.35,4.54-23Z"/></svg>