<?xml version="1.0" encoding="UTF-8"?>
<!DOCTYPE svg PUBLIC "-//W3C//DTD SVG 1.1//EN" "http://www.w3.org/Graphics/SVG/1.1/DTD/svg11.dtd">
<!-- Creator: CorelDRAW X7 -->
<svg xmlns="http://www.w3.org/2000/svg" xml:space="preserve" width="25.5439mm" height="25.5439mm" version="1.1" style="shape-rendering:geometricPrecision; text-rendering:geometricPrecision; image-rendering:optimizeQuality; fill-rule:evenodd; clip-rule:evenodd"
viewBox="0 0 2554 2554"
 xmlns:xlink="http://www.w3.org/1999/xlink">
 <defs>
  <style type="text/css">
   <![CDATA[
    .fil1 {fill:#2B2A29}
    .fil0 {fill:#F7DF1E}
   ]]>
  </style>
 </defs>
 <g id="Capa_x0020_1">
  <metadata id="CorelCorpID_0Corel-Layer"/>
  <rect class="fil0" width="2554" height="2554"/>
  <polygon class="fil1" points="1378,1868 1852,1868 1749,2366 1450,2466 1190,2366 1216,2236 1326,2236 1319,2288 1475,2349 1654,2288 1716,1979 1357,1979 "/>
  <path class="fil1" d="M1902 1868l563 0 -23 110 -446 0 -15 71 446 0 -65 316 -298 100 -260 -99 25 -130 110 0 -7 51 156 61 180 -61 25 -126 -449 0c20,-97 39,-195 58,-293z"/>
 </g>
</svg>
