<svg id="Layer_1" data-name="Layer 1" xmlns="http://www.w3.org/2000/svg" viewBox="0 0 300 300"><defs><style>.cls-1{fill:#1a1918;}.cls-1,.cls-2{fill-rule:evenodd;}.cls-2{fill:#20619d;}</style></defs><title>logo TECH</title><path class="cls-1" d="M241.25,188.59c2.45,1.53,4.09,9.95,4.09,9.95s-13.23.12-20.48.12h-6.21L211,231.55H199.57s7.14-35.7,8.9-42.14c.47-2.1,3.75-1.75,9.13-1.75h8.66c5.62,0,12.18-.7,15,.93Z"/><path class="cls-1" d="M187.4,204.63a7.15,7.15,0,0,0-1.17-4.56c-1.41-2.11-2.58-2.58-6.21-2.7-10.06-.35-9.83,7.14-9.83,7.14l17.21.12Zm10.89-8.54c1.52,5.26-1.29,17.79-1.29,17.79s-14.63-.24-22.71,0c-2.46.12-5.5-.24-6.2.82-1.06,1.64.35,4.21,1.63,5.27s4.1,1.28,5,1.4c6.55.94,20.13.23,20.13.23l-2.34,10.54s-19.31.94-28.91-1.41a9.6,9.6,0,0,1-4.92-2.69c-.35-.35-.58-.82-.94-1.17a19.39,19.39,0,0,1-1.28-2.34c-2.23-5.85.23-17.09,2.69-23.06a10,10,0,0,1,1.05-2.34c.47-.94.82-2,1.17-2.58a9.87,9.87,0,0,1,.82-1.05c.35-.35.59-.82.94-1.17a18.08,18.08,0,0,1,3.16-2.69c4-3,11.24-5.39,20-4.45,3.27.35,8.19,1.52,10.65,4.92a18.23,18.23,0,0,1,1.29,4Z"/><path class="cls-1" d="M145.26,187.66l11.24-.12s-6.21,29.62-9.37,44h-13c-9,0-17,1.17-20.37-5.26s-.23-16.63,1.29-23.53c1-5,3.28-15.1,3.28-15.1l11.58-.12s-3.27,15.8-4.68,23.65c-.47,2.81-1.4,5.5-.35,7.49s2.34,2.22,6.67,2.22c1.29.12,5.74,0,5.74,0Z"/><path class="cls-1" d="M92.82,209c1.17-4.21,2.92-8.66,2.69-12.52A10.91,10.91,0,0,0,89.77,188a14.79,14.79,0,0,0-15.1,3.63c-3.16,3.39-4.33,7.37-5.38,12.87-.82,4.1-1.52,8.31,0,11.59,2.69,5.62,11,4.33,20,4.45,1.28-3.63,2.45-7.61,3.51-11.59Zm15.57-16.5c1.28,9.36-3.63,19.66-7,28.56,3.51.35,6.56,0,6.68.23s-2.23,10.65-3.17,10.65c-2.69.12-11.82.12-15.56.12-12.41,0-23.88.82-29.85-5.27A20.76,20.76,0,0,1,55,216.92a43,43,0,0,1,1.4-15.1,44.94,44.94,0,0,1,4.45-11.59c5.15-9,14.17-15.68,29.27-14.16a27.38,27.38,0,0,1,9.83,3c.23.12.82.71.94.71,3.62,2.34,6.78,7.72,7.49,12.64Z"/><path class="cls-1" d="M53.84,187.66c-.82,3.39-1.52,7.26-2.34,10.65H39.09c.94-3.75,1.64-7.49,2.57-10.65Z"/><path class="cls-1" d="M38.62,201.35H50.56c-1.52,8.67-4.68,22.71-7,32.43C42,240,41,244.43,36.87,247.59c-.36.35-.59.23-.94.47-.7.7-4.22,1.52-6.2,1.75a78.81,78.81,0,0,1-10.66,0c1.06-3.74,2.23-8.19,3.05-11.58,9.48,1.17,9.71-7.73,11.58-16.39,1.06-5,4.34-18.5,4.92-20.49Z"/><path class="cls-1" d="M267.23,181.34h13.7s-25.52,34.53-27.63,37.34a21.08,21.08,0,0,0-2.22,3.16,73.85,73.85,0,0,0-2.69,9.71l-12.53.12s2-7,1.87-10.77c0-3.16-1.75-6.44-2.69-9.71s-2.22-9.84-2.22-9.84h13l1.76,7.14Z"/><path class="cls-2" d="M197.7,125.15a54.48,54.48,0,1,1-87.56-62.86,54.5,54.5,0,0,0,87.56,62.86Z"/><path class="cls-2" d="M196.53,107.24a38.92,38.92,0,1,1-55.95-53,38.54,38.54,0,0,0-7.26,22.6,39,39,0,0,0,39,39,38.45,38.45,0,0,0,24.23-8.55Z"/><path class="cls-2" d="M199.46,82.54A23.34,23.34,0,1,1,166.91,50a23.34,23.34,0,0,0,32.55,32.54Z"/></svg>