<?xml version="1.0" encoding="utf-8"?>
<!-- Generator: Adobe Illustrator 24.0.1, SVG Export Plug-In . SVG Version: 6.00 Build 0)  -->
<svg version="1.1" id="Layer_1" xmlns="http://www.w3.org/2000/svg" xmlns:xlink="http://www.w3.org/1999/xlink" x="0px" y="0px"
	 viewBox="0 0 12 12" style="enable-background:new 0 0 12 12;" xml:space="preserve">
<style type="text/css">
	.st0{fill:#0072B1;}
</style>
<path class="st0" d="M10.9,0H1.1C0.5,0,0,0.5,0,1.1v9.8C0,11.5,0.5,12,1.1,12h9.8c0.6,0,1.1-0.5,1.1-1.1V1.1C12,0.5,11.5,0,10.9,0z
	 M3.8,9.8H2.2V4.6h1.6V9.8z M3,3.9C2.5,3.9,2,3.5,2,3S2.5,2,3,2C3.5,2,3.9,2.4,3.9,3C3.9,3.5,3.5,3.9,3,3.9z M9.8,9.8H8.2V7.3
	c0-0.6,0-1.4-0.8-1.4c-0.8,0-1,0.7-1,1.3v2.6H4.8V4.6h1.5v0.7h0c0.2-0.4,0.7-0.8,1.5-0.8c1.6,0,1.9,1.1,1.9,2.5
	C9.8,7,9.8,9.8,9.8,9.8z"/>
</svg>
