<?xml version="1.0" encoding="utf-8"?>
<!-- Generator: Adobe Illustrator 24.0.1, SVG Export Plug-In . SVG Version: 6.00 Build 0)  -->
<svg version="1.1" id="Layer_1" xmlns="http://www.w3.org/2000/svg" xmlns:xlink="http://www.w3.org/1999/xlink" x="0px" y="0px"
	 viewBox="0 0 300 300" style="enable-background:new 0 0 300 300;" xml:space="preserve">
<style type="text/css">
	.st0{fill-rule:evenodd;clip-rule:evenodd;fill:#6383BB;}
	.st1{fill-rule:evenodd;clip-rule:evenodd;}
</style>
<title>logo TECH</title>
<path class="st0" d="M150,218.4c79.8,0,145-30.7,145-68.4s-65.2-68.4-145-68.4S5,112.3,5,150S70.2,218.4,150,218.4z"/>
<path class="st1" d="M72.5,124.9h28.3c13.6,0,25.9,7,23.4,22.4c-2.9,18.3-16.6,27.8-30.9,27.8H78.2l-3.6,18.6H59.4L72.5,124.9z
	 M102.2,136.5H85.6l-5.2,27h17.4C109.2,159.7,113.5,139.8,102.2,136.5L102.2,136.5z"/>
<path class="st1" d="M169.2,124.9c9.4,0,13.1,10.9,11.7,18.4l-6.1,31.9h-15.2l5.5-28.6c1.3-5.6-0.9-10.2-4.8-10h-14.6l-7.3,38.6
	h-15.3l13.2-68.9h15.2l-3.5,18.7H169.2z"/>
<path class="st1" d="M188.6,124.9h28.3c13.6,0,25.9,7,23.4,22.4c-2.9,18.3-16.6,27.8-30.9,27.8h-15.1l-3.6,18.6h-15.1L188.6,124.9z
	 M218.3,136.5h-16.6l-5.1,27h17.3C225.2,159.7,229.5,139.8,218.3,136.5L218.3,136.5z"/>
</svg>
