<svg id="Layer_1" data-name="Layer 1" xmlns="http://www.w3.org/2000/svg" viewBox="0 0 300 300"><defs><style>.cls-1{fill:#6383bb;}.cls-1,.cls-2{fill-rule:evenodd;}</style></defs><title>logo TECH</title><path class="cls-1" d="M150,209c68.82,0,125-26.49,125-59S218.82,91,150,91,25,117.48,25,150s56.18,59,125,59Z"/><path class="cls-2" d="M83.23,128.39H107.6c11.72,0,22.3,6.07,20.17,19.27-2.54,15.75-14.27,24-26.65,24h-13l-3.12,16H71.92Zm25.6,10H94.47L90,161.69H105c9.84-3.36,13.53-20.51,3.86-23.3Z"/><path class="cls-2" d="M166.57,128.39c8.12,0,11.32,9.43,10.09,15.83l-5.25,27.47H158.28L163,147c1.15-4.84-.74-8.78-4.1-8.62H146.31L140,171.69h-13.2l11.4-59.38h13.12l-3,16.08Z"/><path class="cls-2" d="M183.3,128.39h24.36c11.73,0,22.31,6.07,20.18,19.27-2.46,15.75-14.27,24-26.66,24h-13l-3.12,16H172Zm25.59,10H194.54l-4.43,23.3H205c9.84-3.36,13.53-20.51,3.85-23.3Z"/></svg>