<?xml version="1.0" encoding="utf-8"?>
<!-- Generator: Adobe Illustrator 24.0.1, SVG Export Plug-In . SVG Version: 6.00 Build 0)  -->
<svg version="1.1" id="Layer_1" xmlns="http://www.w3.org/2000/svg" xmlns:xlink="http://www.w3.org/1999/xlink" x="0px" y="0px"
	 viewBox="0 0 300 300" style="enable-background:new 0 0 300 300;" xml:space="preserve">
<style type="text/css">
	.st0{fill-rule:evenodd;clip-rule:evenodd;fill:#55C1DE;}
</style>
<title>logo TECH</title>
<path class="st0" d="M214.4,118.7c-2-0.7-4.2-1.3-6.4-2c0.4-1.5,0.7-3,1-4.5c4.9-23.6,1.6-42.7-9.2-49c-10.4-6-27.5,0.2-44.7,15.3
	c-1.6,1.5-3.3,3-4.9,4.5c-1.1-1-2.3-2-3.4-3.1c-18.1-16-36.1-22.8-47-16.5c-10.4,6.1-13.5,24-9.2,46.4c0.5,2.2,0.9,4.4,1.5,6.6
	c-2.5,0.7-5,1.5-7.4,2.3C63.6,126.3,50,137.8,50,149.8c0,12.4,14.6,24.9,36.6,32.4c1.7,0.6,3.5,1.2,5.4,1.7
	c-0.6,2.4-1.2,4.8-1.6,7.1c-4.2,22.1-0.9,39.5,9.5,45.5c10.7,6.2,28.8-0.2,46.3-15.5c1.4-1.3,2.7-2.5,4.1-3.8
	c1.8,1.7,3.6,3.4,5.4,4.9c17.1,14.6,33.8,20.5,44.2,14.5c10.7-6.2,14.2-25,9.7-47.9c-0.3-1.7-0.8-3.5-1.2-5.3
	c1.3-0.4,2.5-0.8,3.7-1.2c22.9-7.6,37.9-19.9,37.9-32.5C250,137.8,236.1,126.2,214.4,118.7L214.4,118.7z M209.5,174.1
	c-1.1,0.4-2.2,0.8-3.4,1.1c-2.8-8.7-6.2-17.1-10.2-25.3c3.8-8.1,7.1-16.4,9.8-25c2,0.5,4,1.2,5.9,1.9c18.5,6.3,29.8,15.8,29.8,23
	C241.5,157.6,229.3,167.6,209.5,174.1z M201.3,190.5c2,10.1,2.3,19.2,0.9,26.4c-1.2,6.4-3.6,10.7-6.6,12.4
	c-6.3,3.6-19.8-1.1-34.3-13.6c-1.7-1.4-3.4-3-5.1-4.6c6.1-6.7,11.7-13.8,16.8-21.3c9.1-0.8,18.1-2.2,27.1-4.2
	C200.6,187.2,201,188.8,201.3,190.5L201.3,190.5z M118.2,228.6c-6.2,2.1-11.1,2.2-14.1,0.5c-6.3-3.6-8.9-17.7-5.3-36.5
	c0.4-2.1,0.9-4.3,1.5-6.6c8.9,1.9,17.9,3.2,26.9,3.8c5.2,7.5,11,14.6,17.2,21.3c-1.3,1.2-2.6,2.3-3.8,3.5
	C132.8,221.4,125,226.2,118.2,228.6L118.2,228.6z M89.3,174.1c-9.8-3.4-17.8-7.7-23.3-12.4c-5-4.2-7.5-8.4-7.5-11.9
	c0-7.3,10.9-16.5,29-22.8c2.2-0.8,4.5-1.5,6.9-2.2c2.7,8.6,6,17,9.7,25.2c-3.8,8.3-7.1,16.9-9.9,25.7
	C92.6,175.1,90.9,174.6,89.3,174.1L89.3,174.1z M99,108.3c-3.8-19.2-1.3-33.7,5-37.3c6.6-3.9,21.4,1.6,37.1,15.5c1,0.9,2,1.8,3,2.7
	c-6.1,6.7-11.8,13.7-17.1,21.1c-9,0.8-17.9,2.1-26.7,4.1C99.9,112.3,99.4,110.3,99,108.3L99,108.3z M185.3,129.7
	c-2-3.4-4.1-6.8-6.1-10c6.3,0.8,12.5,1.9,18.2,3.1c-1.7,5.6-3.9,11.3-6.4,17.3C189.2,136.6,187.3,133.1,185.3,129.7z M150.1,95.4
	c4.2,4.5,8.1,9.2,11.7,14.2c-3.9-0.2-7.8-0.2-11.8-0.2s-7.9,0.1-11.8,0.2C142.1,104.5,146.1,99.7,150.1,95.4L150.1,95.4z
	 M114.7,129.7c-2,3.4-3.8,6.9-5.6,10.4c-2.4-5.7-4.5-11.5-6.3-17.4c5.7-1.3,11.7-2.3,18.1-3.1C118.8,122.9,116.6,126.2,114.7,129.7z
	 M121,180.7c-6.2-0.7-12.4-1.7-18.5-3c1.8-5.7,4-11.6,6.5-17.7c1.8,3.5,3.7,7,5.7,10.4l0,0C116.7,174,118.8,177.4,121,180.7z
	 M150.4,204.9c-4.1-4.4-8.1-9.2-12-14.4c3.8,0.2,7.7,0.2,11.7,0.2c4.1,0,8.1-0.1,12-0.3C158.4,195.5,154.5,200.3,150.4,204.9z
	 M191.1,159.8c2.5,5.7,4.8,11.6,6.7,17.6c-6.1,1.4-12.3,2.4-18.6,3.2c2-3.3,4.1-6.6,6.1-10.2S189.3,163.3,191.1,159.8L191.1,159.8z
	 M177.9,166c-3.1,5.5-6.3,10.6-9.5,15.5c-5.9,0.5-12.1,0.7-18.3,0.7s-12.3-0.2-18.1-0.6c-3.4-4.9-6.6-10.1-9.8-15.5l0,0
	c-3.1-5.3-5.9-10.7-8.5-16.1c2.6-5.4,5.4-10.8,8.5-16.1l0,0c3.1-5.4,6.3-10.6,9.7-15.4c5.9-0.5,12-0.7,18.2-0.7l0,0
	c6.2,0,12.3,0.2,18.2,0.7c3.3,4.9,6.5,10,9.6,15.3c3.1,5.3,6,10.8,8.6,16C183.9,155.2,181,160.6,177.9,166L177.9,166z M195.6,70.7
	c6.6,3.8,9.3,19.4,5.1,39.8c-0.3,1.3-0.5,2.7-0.9,4c-8.8-2-17.8-3.4-26.8-4.1c-5.1-7.4-10.8-14.5-16.9-21.2c1.6-1.4,3.1-2.9,4.6-4.2
	C175.4,72.1,189.2,67.1,195.6,70.7z"/>
<path class="st0" d="M150,132c9.9,0,17.9,8,17.8,17.9s-8,17.9-17.9,17.8c-9.9,0-17.9-8-17.8-17.9C132.1,140,140.1,132,150,132
	C149.9,132,150,132,150,132z"/>
</svg>
