<?xml version="1.0" encoding="utf-8"?>
<!-- Generator: Adobe Illustrator 24.0.1, SVG Export Plug-In . SVG Version: 6.00 Build 0)  -->
<svg version="1.1" id="Layer_1" xmlns="http://www.w3.org/2000/svg" xmlns:xlink="http://www.w3.org/1999/xlink" x="0px" y="0px"
	 viewBox="0 0 300 300" style="enable-background:new 0 0 300 300;" xml:space="preserve">
<style type="text/css">
	.st0{fill:#764ABC;}
</style>
<path class="st0" d="M188.6,183c7.4-0.8,13-7.1,12.7-14.8c-0.3-7.6-6.6-13.7-14.3-13.7h-0.5c-7.9,0.3-14,6.9-13.7,14.8
	c0.3,3.8,1.8,7.1,4.1,9.4c-8.7,17.1-21.9,29.5-41.7,40c-13.5,7.1-27.5,9.7-41.5,7.9c-11.5-1.5-20.4-6.6-26-15
	c-8.1-12.5-8.9-26-2-39.4c4.8-9.7,12.5-16.8,17.3-20.4c-1-3.3-2.5-8.9-3.3-13c-36.9,26.7-33.1,62.9-21.9,79.9
	c8.4,12.7,25.5,20.6,44.3,20.6c5.1,0,10.2-0.5,15.3-1.8C149.9,231.1,174.6,211.7,188.6,183L188.6,183z M233.4,151.4
	c-19.3-22.7-47.8-35.1-80.4-35.1h-4.1c-2.3-4.6-7.1-7.6-12.5-7.6h-0.5c-7.9,0.3-14,6.9-13.7,14.8c0.3,7.6,6.6,13.7,14.3,13.7h0.5
	c5.6-0.3,10.4-3.8,12.5-8.7h4.6c19.3,0,37.7,5.6,54.2,16.5c12.7,8.4,21.9,19.3,27,32.6c4.3,10.7,4.1,21.1-0.5,30
	c-7.1,13.5-19.1,20.9-34.9,20.9c-10.2,0-19.9-3.1-24.9-5.3c-2.8,2.5-7.9,6.6-11.5,9.2c10.9,5.1,22.1,7.9,32.8,7.9
	c24.4,0,42.5-13.5,49.4-27C253,198.5,252.5,173,233.4,151.4L233.4,151.4z M104.1,187.3c0.3,7.6,6.6,13.7,14.3,13.7h0.5
	c7.9-0.3,14-6.9,13.7-14.8c-0.3-7.6-6.6-13.7-14.3-13.7h-0.5c-0.5,0-1.3,0-1.8,0.3c-10.4-17.3-14.8-36.1-13.2-56.5
	c1-15.3,6.1-28.5,15-39.5c7.4-9.4,21.6-14,31.3-14.3c27-0.5,38.4,33.1,39.2,46.6c3.3,0.8,8.9,2.5,12.7,3.8
	c-3.1-41.2-28.5-62.6-52.9-62.6c-22.9,0-44,16.5-52.4,41c-11.7,32.6-4.1,63.9,10.2,88.6C104.6,181.7,103.8,184.5,104.1,187.3
	L104.1,187.3z"/>
</svg>
