<?xml version="1.0" encoding="UTF-8"?>
<!DOCTYPE svg PUBLIC "-//W3C//DTD SVG 1.1//EN" "http://www.w3.org/Graphics/SVG/1.1/DTD/svg11.dtd">
<!-- Creator: CorelDRAW X7 -->
<svg xmlns="http://www.w3.org/2000/svg" xml:space="preserve" width="14.0842mm" height="21.1668mm" version="1.1" style="shape-rendering:geometricPrecision; text-rendering:geometricPrecision; image-rendering:optimizeQuality; fill-rule:evenodd; clip-rule:evenodd"
viewBox="0 0 1408 2117"
 xmlns:xlink="http://www.w3.org/1999/xlink">
 <defs>
  <style type="text/css">
   <![CDATA[
    .fil1 {fill:#C5C6C6}
    .fil0 {fill:#E44D26}
   ]]>
  </style>
 </defs>
 <g id="Capa_x0020_1">
  <metadata id="CorelCorpID_0Corel-Layer"/>
  <g id="_436318096">
   <g>
    <path class="fil0" d="M0 1525c0,182 337,349 195,377l-195 0 0 126 191 0c167,0 280,-178 75,-336 -22,-18 -122,-90 -134,-113 -21,-39 30,-54 93,-54l126 0 0 -118 -203 0c-69,0 -148,40 -148,118z"/>
    <path class="fil0" d="M1116 1865c0,100 49,163 148,163l144 0 0 -126c-25,0 -64,0 -89,0 -59,1 -70,-25 -70,-103l0 -392 -133 0 0 458z"/>
    <path class="fil0" d="M740 1407c174,0 315,139 315,310 0,146 -101,268 -239,302l0 98 -118 0c0,-100 0,-200 0,-300l118 0 0 75c69,-29 117,-96 117,-175 0,-105 -86,-190 -193,-190 -107,0 -193,85 -193,190 0,76 44,141 109,172l0 128c-134,-37 -232,-157 -232,-300 0,-171 142,-310 316,-310z"/>
   </g>
   <path class="fil1" d="M239 172c0,-95 212,-172 465,-172 253,0 465,77 465,172l0 821c0,97 -208,176 -465,176 -257,0 -465,-79 -465,-176l0 -821zm848 430c-84,46 -224,76 -383,76 -159,0 -299,-30 -383,-76l0 109c0,74 172,134 383,134 212,0 383,-60 383,-134l0 -109zm-766 -141c0,74 172,133 383,133 212,0 383,-59 383,-133l0 -103c-84,46 -224,76 -383,76 -159,0 -299,-30 -383,-76l0 103zm766 391c-84,46 -224,77 -383,77 -159,0 -299,-31 -383,-77l0 100c0,74 172,133 383,133 212,0 383,-59 383,-133l0 -100zm-383 -768c212,0 383,59 383,133 0,74 -171,133 -383,133 -211,0 -383,-59 -383,-133 0,-74 172,-133 383,-133z"/>
  </g>
 </g>
</svg>
