<?xml version="1.0" encoding="utf-8"?>
<!-- Generator: Adobe Illustrator 24.0.1, SVG Export Plug-In . SVG Version: 6.00 Build 0)  -->
<svg version="1.1" id="Layer_1" xmlns="http://www.w3.org/2000/svg" xmlns:xlink="http://www.w3.org/1999/xlink" x="0px" y="0px"
	 viewBox="0 0 300 300" style="enable-background:new 0 0 300 300;" xml:space="preserve">
<style type="text/css">
	.st0{fill:#232933;}
</style>
<g>
	<path class="st0" d="M170.3,125.6c0-9.8-7-15.3-19.2-15.3h-22.5c0,0,0,31.8,0,31.7h19C162.2,142,170.3,136.1,170.3,125.6z"/>
	<path class="st0" d="M151,154.7h-22.4v35H152c15.2,0,23.3-6.1,23.3-17.6S167,154.7,151,154.7z"/>
	<path class="st0" d="M252.1,119.9c-4.3-13.8-4.9-30.7-4.4-43.8c0.5-13.6-10.1-26.1-24.4-26.1H76.6c-14.3,0-24.9,12.5-24.4,26.1
		c0.5,13.1-0.1,30-4.4,43.8s-11.5,22.6-23.3,23.7v12.7c11.8,1.1,19,9.9,23.3,23.7s4.9,30.7,4.4,43.8c-0.5,13.6,10.1,26.1,24.4,26.1
		h146.7c14.3,0,24.9-12.5,24.4-26.1c-0.4-13.1,0.1-30,4.4-43.8s11.5-22.6,23.3-23.7v-12.7C263.6,142.5,256.4,133.7,252.1,119.9z
		 M155.4,203.2L155.4,203.2l-43.7,0.1V96.9h43.5c19.3,0,32,10.4,32,26.5c0,11.2-8.5,21.3-19.4,23.1v0.6c14.8,1.6,24.8,11.8,24.8,26
		C192.6,191.8,178.6,203.2,155.4,203.2z"/>
</g>
</svg>
