<svg id="Layer_1" data-name="Layer 1" xmlns="http://www.w3.org/2000/svg" viewBox="0 0 300 300"><defs><style>.cls-1{fill:#232933;fill-rule:evenodd;}</style></defs><title>logo TECH</title><path class="cls-1" d="M208.89,138.39H194.54l-4.43,23.3H205C214.88,158.33,218.57,141.18,208.89,138.39Z"/><path class="cls-1" d="M108.83,138.39H94.47L90,161.69H105C114.81,158.33,118.5,141.18,108.83,138.39Z"/><path class="cls-1" d="M150,91C81.18,91,25,117.48,25,150s56.18,59,125,59,125-26.49,125-59S218.82,91,150,91Zm-48.88,80.7h-13l-3.12,16H71.92l11.31-59.3H107.6c11.72,0,22.3,6.07,20.17,19.27C125.23,163.41,113.5,171.69,101.12,171.69Zm57.16,0L163,147c1.15-4.84-.74-8.78-4.1-8.62H146.31L140,171.69h-13.2l11.4-59.38h13.12l-3,16.08h18.29c8.12,0,11.32,9.43,10.09,15.83l-5.25,27.47Zm69.56-24c-2.46,15.75-14.27,24-26.66,24h-13l-3.12,16H172l11.32-59.3h24.36C219.39,128.39,230,134.46,227.84,147.66Z"/></svg>