<svg id="Layer_1" data-name="Layer 1" xmlns="http://www.w3.org/2000/svg" viewBox="0 0 300 300"><defs><style>.cls-1{fill:#232933;fill-rule:evenodd;}</style></defs><title>logo TECH</title><path class="cls-1" d="M213.35,119.2c-2-.7-4.16-1.31-6.31-1.93.38-1.46.69-2.92,1-4.38,4.77-23.23,1.61-42-9.08-48.16-10.23-5.92-27,.23-44,15-1.61,1.46-3.23,2.93-4.84,4.46-1.08-1-2.24-2-3.31-3C129,65.42,111.27,58.81,100.58,65c-10.23,6-13.31,23.62-9,45.62.46,2.15.92,4.31,1.46,6.54-2.46.69-4.93,1.46-7.23,2.31C65,126.66,51.65,138,51.65,149.81c0,12.23,14.31,24.46,36,31.85,1.7.61,3.46,1.15,5.31,1.69-.61,2.38-1.15,4.69-1.54,7-4.15,21.69-.92,38.85,9.31,44.77,10.54,6.08,28.31-.15,45.54-15.23,1.38-1.23,2.69-2.46,4.08-3.77,1.77,1.69,3.53,3.31,5.3,4.85,16.77,14.38,33.24,20.15,43.47,14.23,10.53-6.08,14-24.54,9.53-47.08-.3-1.69-.76-3.46-1.15-5.23,1.23-.39,2.46-.77,3.62-1.16,22.54-7.46,37.23-19.53,37.23-31.92,0-11.85-13.69-23.23-35-30.61Zm-4.85,54.53c-1.08.39-2.15.77-3.31,1.08a186.15,186.15,0,0,0-10-24.92,202.1,202.1,0,0,0,9.62-24.54c2,.54,3.92,1.15,5.84,1.85,18.16,6.23,29.31,15.53,29.31,22.61,0,7.62-12,17.54-31.46,23.92Zm-8.08,16.08c1.93,9.92,2.23,18.92.93,25.93-1.16,6.3-3.54,10.53-6.46,12.23-6.16,3.53-19.47-1.08-33.7-13.39-1.69-1.38-3.31-2.92-5-4.54a203.12,203.12,0,0,0,16.54-20.92A204,204,0,0,0,199.35,185c.38,1.62.77,3.16,1.07,4.77Zm-81.69,37.54c-6.08,2.08-10.92,2.15-13.85.46-6.15-3.54-8.77-17.38-5.23-35.92.39-2.08.93-4.23,1.46-6.46a197.33,197.33,0,0,0,26.47,3.77,199.59,199.59,0,0,0,16.92,20.92c-1.31,1.15-2.54,2.31-3.77,3.46-7.61,6.62-15.31,11.39-22,13.77ZM90.35,173.73c-9.62-3.3-17.54-7.53-22.93-12.23C62.5,157.35,60,153.2,60,149.81c0-7.15,10.69-16.23,28.54-22.46,2.15-.77,4.38-1.46,6.77-2.15A210.05,210.05,0,0,0,104.88,150a203.93,203.93,0,0,0-9.69,25.23c-1.69-.54-3.31-1-4.84-1.54ZM99.88,109c-3.69-18.84-1.3-33.15,4.93-36.69,6.54-3.84,21.07,1.62,36.46,15.23,1,.85,1.92,1.77,2.92,2.69A218,218,0,0,0,127.42,111,203.88,203.88,0,0,0,101.19,115c-.46-2.08-.92-4.08-1.31-6.08Zm84.85,21c-2-3.38-4-6.69-6-9.84,6.23.77,12.31,1.84,17.92,3.08-1.69,5.46-3.84,11.15-6.3,17-1.77-3.39-3.7-6.85-5.62-10.24ZM150.12,96.27a171.66,171.66,0,0,1,11.53,13.92C157.81,110,154,110,150,110s-7.77.08-11.62.23c3.85-5,7.77-9.69,11.7-13.92ZM115.27,130c-1.92,3.39-3.77,6.77-5.54,10.24a178.55,178.55,0,0,1-6.23-17.08c5.61-1.23,11.54-2.23,17.85-3-2.08,3.15-4.16,6.46-6.08,9.84Zm6.23,50.24a171,171,0,0,1-18.15-2.93c1.76-5.61,3.92-11.38,6.38-17.38,1.77,3.46,3.62,6.84,5.62,10.23h0c1.92,3.46,4,6.77,6.15,10.08ZM150.35,204c-4-4.31-8-9.07-11.85-14.15q5.66.23,11.54.23c4,0,7.92-.08,11.84-.31A177.55,177.55,0,0,1,150.35,204Zm40.07-44.38A180.66,180.66,0,0,1,197,176.89,173.61,173.61,0,0,1,178.73,180c2-3.23,4-6.54,6-10s3.92-6.92,5.69-10.38Zm-13,6.15c-3.07,5.39-6.23,10.46-9.38,15.23-5.85.46-11.92.69-18,.69s-12.08-.23-17.85-.61c-3.31-4.85-6.54-9.92-9.61-15.23h0c-3.08-5.23-5.85-10.54-8.39-15.85,2.54-5.31,5.31-10.61,8.39-15.84h0c3-5.31,6.23-10.39,9.54-15.16,5.84-.46,11.84-.69,17.92-.69h0c6.08,0,12.08.23,17.92.69,3.23,4.77,6.39,9.85,9.46,15.08s5.93,10.61,8.47,15.77c-2.54,5.31-5.39,10.61-8.47,15.92ZM194.81,72c6.54,3.77,9.15,19.08,5,39.15-.31,1.31-.54,2.62-.92,3.93A202.67,202.67,0,0,0,172.58,111,199,199,0,0,0,156,90.19c1.54-1.38,3.08-2.84,4.54-4.15C175,73.43,188.58,68.43,194.81,72Z"/><path class="cls-1" d="M150,132.27a17.58,17.58,0,1,1-17.62,17.54A17.54,17.54,0,0,1,150,132.27Z"/></svg>