<svg id="Layer_1" data-name="Layer 1" xmlns="http://www.w3.org/2000/svg" viewBox="0 0 300 300"><defs><style>.cls-1{fill:#fff;fill-rule:evenodd;}</style></defs><title>logo TECH</title><path class="cls-1" d="M129.34,157.66s-6.54,3.79,4.73,5.08c13.52,1.55,20.49,1.29,35.47-1.55a61.47,61.47,0,0,0,9.47,4.65c-33.57,14.38-76-.86-49.67-8.18Z"/><path class="cls-1" d="M125.29,138.81s-7.4,5.51,3.88,6.63c14.46,1.55,25.91,1.63,45.8-2.15a21,21,0,0,0,7.05,4.3c-40.63,11.79-85.83.86-56.73-8.78Z"/><path class="cls-1" d="M159.81,107c8.27,9.47-2.15,18.08-2.15,18.08s21-10.85,11.37-24.45C160,88,153.1,81.73,190.55,60c0,0-58.71,14.63-30.74,47Z"/><path class="cls-1" d="M204.24,171.52s4.82,4-5.34,7.06c-19.37,5.86-80.67,7.66-97.63.26-6.19-2.67,5.34-6.37,9-7.15a26.48,26.48,0,0,1,5.85-.68c-6.8-4.74-43.9,9.47-18.85,13.51,68.44,11.11,124.74-5,107-13Z"/><path class="cls-1" d="M132.52,119.44s-31.16,7.4-11,10.07c8.44,1.12,25.4.86,41.24-.43,12.83-1.12,25.83-3.44,25.83-3.44a55.74,55.74,0,0,0-7.84,4.22c-31.68,8.35-92.8,4.47-75.24-4.05,14.9-7.23,27-6.37,27-6.37Z"/><path class="cls-1" d="M188.4,150.69c32.19-16.79,17.3-32.8,7-30.65a25.91,25.91,0,0,0-3.7.95,5.63,5.63,0,0,1,2.75-2.07c20.49-7.23,36.33,21.27-6.63,32.54a2.18,2.18,0,0,0,.61-.77Z"/><path class="cls-1" d="M169,25s17.82,17.82-16.88,45.28c-27.89,22-6.37,34.52,0,48.81-16.27-14.63-28.23-27.54-20.23-39.6C143.72,61.85,176.26,53.32,169,25Z"/><path class="cls-1" d="M135.71,196c30.82,2,78.25-1.12,79.37-15.75,0,0-2.15,5.59-25.48,10-26.34,4.91-58.88,4.39-78.17,1.21,0,0,4,3.27,24.28,4.56Z"/><path class="cls-1" d="M130.63,251.76c-2.93,2.58-6,4-8.78,4-4,0-6-2.33-6-6.12,0-4.13,2.24-7.14,11.45-7.14h3.36v9.3m8,9.12V232.82c0-7.23-4-12-13.95-12a36.82,36.82,0,0,0-14.89,3.27l1.2,5a33.79,33.79,0,0,1,11.45-2.33c5.68,0,8.18,2.33,8.18,7.06v3.53h-2.84c-13.77,0-20.06,5.34-20.06,13.34,0,7,4.13,10.94,11.88,10.94,4.91,0,8.61-2.07,12.14-5.08l.6,4.3Z"/><path class="cls-1" d="M165.5,260.88H155.42l-12-39.25h8.78l7.49,24.1,1.64,7.23a153.17,153.17,0,0,0,7.83-31.33h8.52c-2.32,12.91-6.37,27.11-12.13,39.25Z"/><path class="cls-1" d="M204,251.76c-2.93,2.58-6,4-8.78,4-4,0-6.12-2.33-6.12-6.12,0-4.13,2.33-7.14,11.45-7.14H204v9.3m8,9.12V232.82c0-7.23-4.13-12-13.94-12a36.56,36.56,0,0,0-14.9,3.27l1.21,5a33.69,33.69,0,0,1,11.45-2.33c5.68,0,8.18,2.33,8.18,7.06v3.53h-2.84c-13.86,0-20.06,5.34-20.06,13.34,0,7,4.13,10.94,11.79,10.94,5,0,8.7-2.07,12.14-5.08l.69,4.3Z"/><path class="cls-1" d="M99,267.51A21.05,21.05,0,0,1,88.88,275l-4-4.65a16.1,16.1,0,0,0,7-6.54c1-2.07,1.46-4.82,1.46-11.37V207.59H102v44.25c0,8.7-.77,12.23-3,15.67Z"/></svg>